<svg width="204" height="172" viewBox="0 0 204 172" fill="none" xmlns="http://www.w3.org/2000/svg">
<path d="M25 96.32C25 143.816 88.3238 172 43.4266 172C-1.4707 172 180 143.816 180 96.32C180 48.8235 -1.4707 0 43.4266 0C88.3238 0 25 48.8235 25 96.32Z" fill="#42E87A" fill-opacity="0.29"/>
<path d="M171.026 0C156.241 0 143.7 9.91803 139.538 23.5334H3.46922C1.55329 23.5334 0 25.1075 0 27.0492V147.484C0 149.426 1.55329 151 3.46922 151H184.331C186.247 151 187.801 149.426 187.801 147.484V62.1324C197.478 56.3073 203.982 45.6107 203.982 33.3994C203.982 14.9832 189.198 0 171.026 0ZM138.197 30.5651C138.119 31.5003 138.07 32.444 138.07 33.3994C138.07 41.198 140.728 48.3751 145.165 54.0656L93.9003 95.5041L13.5586 30.5651H138.197ZM6.93845 34.2089L72.5831 87.2686L6.93845 140.325V34.2089ZM13.5591 143.969L78.1468 91.7651L91.7374 102.75C92.3702 103.262 93.1352 103.517 93.9003 103.517C94.6654 103.517 95.4309 103.262 96.0637 102.75L109.654 91.7651L174.242 143.969H13.5591ZM180.863 140.325H180.862L115.218 87.2681L150.033 59.1261C155.738 63.9162 163.056 66.7996 171.026 66.7996C174.451 66.7996 177.755 66.2666 180.863 65.2794V140.325ZM171.026 59.7674C156.679 59.7674 145.008 47.9391 145.008 33.3998C145.008 18.861 156.679 7.0322 171.026 7.0322C185.372 7.0322 197.044 18.8605 197.044 33.3998C197.044 47.9391 185.372 59.7674 171.026 59.7674Z" fill="#52B9EA"/>
<path d="M171.373 14.415C169.457 14.415 167.903 15.9892 167.903 17.9309V22.8527H166.516C164.6 22.8527 163.046 24.4268 163.046 26.3685C163.046 28.3102 164.6 29.8844 166.516 29.8844H167.903V48.8692C167.903 50.8108 169.457 52.385 171.373 52.385C173.288 52.385 174.842 50.8108 174.842 48.8692V17.9309C174.842 15.9887 173.288 14.415 171.373 14.415Z" fill="#52B9EA"/>
</svg>
