<svg width="150" height="150" viewBox="0 0 150 150" fill="none" xmlns="http://www.w3.org/2000/svg">
<circle cx="75" cy="75" r="74" stroke="#7AEA52" stroke-width="2" stroke-dasharray="40 80 12 16"/>
<path d="M90.5357 46.7347H100.952C103.184 46.7347 105 45.1464 105 43.1941V28.5521C105 26.5998 103.184 25.0115 100.952 25.0115H86.6483C86.5112 25.0064 86.273 25 85.9392 25C83.2402 25 73.8548 25.4658 66.4088 31.4578C58.2813 37.9994 59.059 45.8244 59.4011 47.7537V57.2927H49.0475C46.8159 57.2927 45 58.881 45 60.8333V76.5812C45 78.5337 46.8157 80.1222 49.0475 80.1222H58.802V121.459C58.802 123.412 60.6177 125 62.8496 125H83.2498C85.4815 125 87.2974 123.412 87.2974 121.459V80.3263H98.8517C100.909 80.3263 102.638 78.978 102.873 77.1903L104.973 61.2388C105.105 60.2367 104.741 59.23 103.974 58.4771C103.206 57.7245 102.105 57.2929 100.953 57.2929H87.2982V49.2857C87.2978 47.6312 87.8138 46.7347 90.5357 46.7347ZM85.0208 61.2771H100.384L98.3997 76.3423H85.0202C83.7627 76.3423 82.743 77.2341 82.743 78.3343V121.016H63.3562V78.13C63.3562 77.0298 62.3365 76.138 61.079 76.138H49.5542V61.2767H61.6783C62.9357 61.2767 63.9554 60.3849 63.9554 59.2847V47.5918C63.9554 47.4775 63.9443 47.3632 63.9219 47.2505C63.6819 46.0445 62.8239 39.7574 69.4927 34.3898C75.7254 29.374 83.6571 28.9842 85.9394 28.9842C86.2593 28.9842 86.4498 28.9916 86.4846 28.9932C86.5221 28.9947 86.5597 28.9955 86.5972 28.9955H100.446V42.7509H90.536C85.6565 42.7509 82.7434 45.1939 82.7434 49.2857V59.2849C82.7434 60.3853 83.7634 61.2771 85.0208 61.2771Z" fill="#52B9EA"/>
<path d="M67.9405 92.1313C66.683 92.1313 65.6633 93.0231 65.6633 94.1233V95.1194C65.6633 96.2196 66.683 97.1114 67.9405 97.1114C69.198 97.1114 70.2177 96.2196 70.2177 95.1194V94.1233C70.2177 93.0231 69.1978 92.1313 67.9405 92.1313Z" fill="#52B9EA"/>
<path d="M67.9405 99.502C66.683 99.502 65.6633 100.394 65.6633 101.494V116.633C65.6633 117.734 66.683 118.625 67.9405 118.625C69.198 118.625 70.2177 117.734 70.2177 116.633V101.494C70.2177 100.394 69.1978 99.502 67.9405 99.502Z" fill="#52B9EA"/>
</svg>
