<svg width="109" height="229" viewBox="0 0 109 229" fill="none" xmlns="http://www.w3.org/2000/svg">
<path d="M73.4207 85.5031C73.4207 132.725 43.4635 171.006 6.50939 171.006C-30.4447 171.006 102 257.067 102 209.845C102 162.623 -30.4447 0 6.50939 0C43.4635 0 73.4207 38.281 73.4207 85.5031Z" fill="#7AEA52" fill-opacity="0.18"/>
<path d="M84.8929 72.4694H102.254C105.973 72.4694 109 69.2929 109 65.3882V36.1043C109 32.1996 105.974 29.023 102.254 29.023H78.4138C78.1853 29.0129 77.7883 29 77.232 29C72.7337 29 57.0914 29.9316 44.6813 41.9156C31.1356 54.9988 32.4317 70.6487 33.0018 74.5073V93.5854H15.7459C12.0265 93.5854 9 96.762 9 100.667V132.162C9 136.067 12.0261 139.244 15.7459 139.244H32.0034V221.919C32.0034 225.823 35.0295 229 38.7493 229H72.7497C76.4691 229 79.4956 225.823 79.4956 221.919V139.653H98.7528C102.182 139.653 105.063 136.956 105.454 133.381L108.956 101.478C109.176 99.4733 108.569 97.46 107.29 95.9542C106.011 94.4491 104.176 93.5858 102.255 93.5858H79.4971V77.5714C79.4963 74.2624 80.3563 72.4694 84.8929 72.4694ZM75.7014 101.554H101.306L97.9996 131.685H75.7003C73.6045 131.685 71.905 133.468 71.905 135.669V221.032H39.5936V135.26C39.5936 133.06 37.8941 131.276 35.7983 131.276H16.5903V101.553H36.7971C38.8929 101.553 40.5924 99.7698 40.5924 97.5694V74.1835C40.5924 73.955 40.5738 73.7265 40.5366 73.5011C40.1365 71.089 38.7065 58.5148 49.8211 47.7797C60.209 37.748 73.4285 36.9683 77.2323 36.9683C77.7656 36.9683 78.083 36.9832 78.1411 36.9863C78.2036 36.9894 78.2661 36.991 78.3286 36.991H101.41V64.5019H84.8933C76.7608 64.5019 71.9057 69.3878 71.9057 77.5714V97.5698C71.9057 99.7706 73.6056 101.554 75.7014 101.554Z" fill="#52B9EA"/>
<path d="M47.2343 163.263C45.1385 163.263 43.439 165.046 43.439 167.247V169.239C43.439 171.439 45.1385 173.223 47.2343 173.223C49.3301 173.223 51.0296 171.439 51.0296 169.239V167.247C51.0296 165.046 49.3297 163.263 47.2343 163.263Z" fill="#52B9EA"/>
<path d="M47.2343 178.003C45.1385 178.003 43.439 179.787 43.439 181.987V212.266C43.439 214.467 45.1385 216.25 47.2343 216.25C49.3301 216.25 51.0296 214.467 51.0296 212.266V181.987C51.0296 179.787 49.3297 178.003 47.2343 178.003Z" fill="#52B9EA"/>
</svg>
