<svg width="94" height="94" viewBox="0 0 94 94" fill="none" xmlns="http://www.w3.org/2000/svg">
<circle cx="47" cy="47" r="45" stroke="#52B9EA" stroke-width="3" stroke-dasharray="40 50 80 90"/>
<path fill-rule="evenodd" clip-rule="evenodd" d="M74.3304 48.4545C74.6648 43.2183 73.4917 37.996 70.9503 33.4058C68.4088 28.8156 64.6054 25.0497 59.9902 22.554C55.375 20.0582 50.1413 18.9371 44.9087 19.3234C39.6761 19.7097 34.6638 21.5871 30.4651 24.7335C26.2664 27.8799 23.0571 32.1635 21.2173 37.0771C19.3774 41.9908 18.9839 47.3287 20.0835 52.459C21.1831 57.5893 23.7296 62.2971 27.4216 66.0251C31.1136 69.7531 35.7965 72.3452 40.9159 73.4945L42.1418 54.3487L35.1829 53.9031L35.6902 45.9803L42.6491 46.4259L43.0357 40.3881C43.4753 33.5222 47.81 29.9885 54.068 30.3892C56.1213 30.5495 58.1601 30.8598 60.1681 31.3178L59.7363 38.0614L56.2795 37.84C52.8777 37.6222 51.6783 39.6654 51.5394 41.8353L51.2103 46.9753L58.8089 47.4619L57.0882 55.3069L50.703 54.8981L49.477 74.0451C55.988 73.437 62.0684 70.5255 66.6243 65.8344C71.1803 61.1433 73.9128 54.9804 74.3304 48.4544L74.3304 48.4545Z" fill="#52B9EA"/>
</svg>
