<svg width="94" height="94" viewBox="0 0 94 94" fill="none" xmlns="http://www.w3.org/2000/svg">
<circle cx="47" cy="47" r="45" stroke="#C9CBCC" stroke-width="3" stroke-dasharray="40 10 100 60"/>
<path fill-rule="evenodd" clip-rule="evenodd" d="M74.1053 48.4545C74.4397 43.2183 73.2666 37.996 70.7252 33.4058C68.1837 28.8156 64.3803 25.0497 59.7651 22.554C55.1499 20.0582 49.9162 18.9371 44.6836 19.3234C39.451 19.7097 34.4387 21.5871 30.24 24.7335C26.0413 27.8799 22.832 32.1635 20.9922 37.0771C19.1523 41.9908 18.7588 47.3287 19.8584 52.459C20.958 57.5893 23.5045 62.2971 27.1965 66.0251C30.8885 69.7531 35.5714 72.3452 40.6908 73.4945L41.9167 54.3487L34.9578 53.9031L35.4651 45.9803L42.424 46.4259L42.8106 40.3881C43.2502 33.5222 47.5849 29.9885 53.8429 30.3892C55.8962 30.5495 57.935 30.8598 59.943 31.3178L59.5112 38.0614L56.0544 37.84C52.6526 37.6222 51.4532 39.6654 51.3143 41.8353L50.9852 46.9753L58.5838 47.4619L56.8631 55.3069L50.4779 54.8981L49.2519 74.0451C55.7629 73.437 61.8433 70.5255 66.3992 65.8344C70.9552 61.1433 73.6877 54.9804 74.1053 48.4544L74.1053 48.4545Z" fill="white"/>
</svg>
