<svg width="114" height="130" viewBox="0 0 114 130" fill="none" xmlns="http://www.w3.org/2000/svg">
<path d="M86 115C86 148.098 35.6661 115 4.87096 115C-25.9241 115 99.3706 110.176 99.3706 77.0788C99.3706 43.9812 19.2049 0 50 0C80.7951 0 86 81.9024 86 115Z" fill="#42E87A" fill-opacity="0.29"/>
<circle cx="67" cy="76" r="45" stroke="#52B9EA" stroke-width="3" stroke-dasharray="40 10 100 60"/>
<path fill-rule="evenodd" clip-rule="evenodd" d="M94.1053 77.4545C94.4397 72.2183 93.2666 66.996 90.7252 62.4058C88.1837 57.8156 84.3803 54.0497 79.7651 51.554C75.1499 49.0582 69.9162 47.9371 64.6836 48.3234C59.451 48.7097 54.4387 50.5871 50.24 53.7335C46.0413 56.8799 42.832 61.1635 40.9922 66.0771C39.1523 70.9908 38.7588 76.3287 39.8584 81.459C40.958 86.5893 43.5045 91.2971 47.1965 95.0251C50.8885 98.7531 55.5714 101.345 60.6908 102.495L61.9167 83.3487L54.9578 82.9031L55.4651 74.9803L62.424 75.4259L62.8106 69.3881C63.2502 62.5222 67.5849 58.9885 73.8429 59.3892C75.8962 59.5495 77.935 59.8598 79.943 60.3178L79.5112 67.0614L76.0544 66.84C72.6526 66.6222 71.4532 68.6654 71.3143 70.8353L70.9852 75.9753L78.5838 76.4619L76.8631 84.3069L70.4779 83.8981L69.2519 103.045C75.7629 102.437 81.8433 99.5255 86.3992 94.8344C90.9552 90.1433 93.6877 83.9804 94.1053 77.4544L94.1053 77.4545Z" fill="#52B9EA"/>
</svg>
