<svg width="117" height="67" viewBox="0 0 117 67" fill="none" xmlns="http://www.w3.org/2000/svg">
<path d="M32.5996 30C32.5996 46.5685 19.1682 60 2.59962 60C-13.9689 60 83 69.5685 83 53C83 36.4315 -13.9689 0 2.59962 0C19.1682 0 32.5996 13.4315 32.5996 30Z" fill="#7AEA52" fill-opacity="0.3"/>
<path d="M32.626 36.0039C32.626 34.627 32.1133 33.9385 31.0879 33.9385C30.6484 33.9385 30.0381 34.0996 29.2568 34.4219L27.3086 35.2275V40.9551C30.8535 39.6367 32.626 37.9863 32.626 36.0039ZM41.3271 36.2529C41.3271 39.3779 39.7842 41.8584 36.6982 43.6943L43.0557 52H31.4834L27.3672 45.2178V52H17.8018V28.6064C23.9932 28.167 28.0508 27.9473 29.9746 27.9473C31.8984 27.9473 33.3633 28.0645 34.3691 28.2988C37.1426 28.9336 39.125 30.291 40.3164 32.3711C40.9805 33.5625 41.3174 34.8564 41.3271 36.2529ZM53.3975 28.6064H56.752L68.0605 39.2266L79.6768 28.6064H82.9141V52H73.29V44.4121L67.3135 50.9746L61.498 44.5879V52H53.3975V28.6064Z" fill="#52B9EA"/>
<path d="M111.508 40.8672L113.749 40.8525C114.296 40.8525 114.613 40.8477 114.701 40.8379V51.707C111.273 52.2832 108.539 52.5713 106.498 52.5713C104.457 52.5713 102.543 52.2832 100.756 51.707C98.9688 51.1211 97.4209 50.291 96.1123 49.2168C94.8037 48.1426 93.7783 46.8438 93.0361 45.3203C92.2939 43.7871 91.9229 42.0732 91.9229 40.1787C91.9229 36.458 93.4023 33.4893 96.3613 31.2725C99.3301 29.0557 103.134 27.9473 107.772 27.9473C110.048 27.9473 111.85 28.1914 113.178 28.6797C113.412 28.7676 113.539 28.8115 113.559 28.8115V35.8867C112.123 35.4473 110.805 35.2275 109.604 35.2275C107.416 35.2275 105.702 35.8086 104.462 36.9707C103.222 38.1328 102.606 39.4707 102.616 40.9844C102.616 42.0391 102.904 42.9033 103.48 43.5771C104.066 44.251 104.867 44.5879 105.883 44.5879C106.43 44.5879 106.85 44.5195 107.143 44.3828C107.162 44.0215 107.172 43.5576 107.172 42.9912V40.8672C108.617 40.8672 110.062 40.8672 111.508 40.8672Z" fill="black"/>
</svg>
