<svg width="150" height="150" viewBox="0 0 150 150" fill="none" xmlns="http://www.w3.org/2000/svg">
<circle cx="75" cy="75" r="74" stroke="#7AEA52" stroke-width="2" stroke-dasharray="40 80 12 16"/>
<path d="M114.283 48.1706C113.704 47.7565 112.938 47.7774 112.381 48.2246C111.817 48.6759 110.901 49.0639 109.86 49.3822C112.71 45.8676 112.769 43.5181 112.736 42.965C112.697 42.3378 112.339 41.7823 111.801 41.5145C111.26 41.2485 110.627 41.3116 110.146 41.6803C106.726 44.3051 103.32 44.8768 101.273 44.9407C98.0951 41.7493 93.9753 40 89.5947 40C80.1773 40 72.5155 48.1977 72.5155 58.2735C72.5155 59.0893 72.5666 59.9034 72.6669 60.7107C56.59 60.4218 43.5414 44.1713 43.4067 44.0003C43.0655 43.5685 42.5474 43.3336 42.0116 43.3875C41.4807 43.4364 41.0047 43.7563 40.7385 44.2437C36.2064 52.5467 38.975 59.873 41.7549 64.2623C41.4678 64.0821 41.2327 63.9163 41.0718 63.7909C40.5807 63.4053 39.9253 63.3413 39.3761 63.6267C38.826 63.913 38.4744 64.4989 38.4641 65.1462C38.3413 73.1081 41.8647 77.7667 45.2882 80.4067C44.9175 80.4607 44.5699 80.6474 44.3091 80.9472C43.9169 81.3967 43.7789 82.0322 43.948 82.6173C46.3221 90.8234 52.0794 93.7302 55.8813 94.7589C48.1907 100.887 37.0443 98.8865 36.9207 98.8619C36.1816 98.7248 35.4419 99.1363 35.1382 99.8654C34.8352 100.594 35.0425 101.447 35.6421 101.93C43.8396 108.536 53.6436 110 60.7249 110C66.0799 110 69.8769 109.162 70.242 109.079C105.963 100.14 107.096 65.6745 107.022 59.8011C113.724 53.2129 114.777 50.6842 114.942 50.0552C115.127 49.3434 114.862 48.5858 114.283 48.1706ZM104.263 57.7995C103.899 58.1531 103.707 58.6633 103.74 59.1852C103.746 59.2777 104.293 68.6195 100.35 79.0286C95.0834 92.9364 84.6998 101.918 69.5213 105.716C69.3586 105.752 55.3174 108.823 42.9913 102.633C48.2608 102.399 55.5583 100.832 60.6931 94.7447C61.122 94.237 61.2241 93.4523 60.9602 92.8319C60.6963 92.2132 60.1103 91.7578 59.4678 91.7578C59.4647 91.7578 59.4614 91.7578 59.4567 91.7578C59.0255 91.7578 51.5916 91.6989 48.0297 84.1175C49.4702 84.1831 51.1922 84.0935 52.58 83.4184C53.2194 83.1069 53.5972 82.4119 53.5183 81.6737C53.4394 80.9353 52.9213 80.3407 52.2324 80.1874C51.833 80.0982 43.2247 78.0695 41.8975 68.1933C43.22 68.7751 44.8686 69.2257 46.5085 68.9663C47.1383 68.867 47.6541 68.3888 47.8325 67.7432C48.0103 67.0984 47.8158 66.4018 47.335 65.9597C46.9627 65.6182 38.8464 57.9949 42.563 48.1446C46.9627 52.9842 59.5099 65.0349 74.7244 64.1139C75.2098 64.0844 75.658 63.8268 75.9462 63.4127C76.2342 62.9986 76.3323 62.4707 76.2134 61.9726C75.9264 60.7655 75.7806 59.5213 75.7806 58.2737C75.7806 50.0988 81.9772 43.4483 89.5945 43.4483C93.3198 43.4483 96.8137 45.0182 99.4336 47.8695C99.734 48.197 100.145 48.3846 100.578 48.3932C102.087 48.4084 104.572 48.2366 107.379 47.1338C106.542 48.1692 105.371 49.3814 103.734 50.7393C103.168 51.209 102.96 52.0156 103.222 52.7236C103.485 53.4332 104.168 53.8818 104.873 53.8137C105.203 53.786 106.803 53.637 108.678 53.2354C107.603 54.4415 106.171 55.9468 104.263 57.7995Z" fill="#52B9EA"/>
</svg>
