<svg width="297" height="172" viewBox="0 0 297 172" fill="none" xmlns="http://www.w3.org/2000/svg">
<path d="M277.663 82.3312L285.129 82.0697C286.952 82.0178 288.009 81.9714 288.301 81.9305L289.332 118.146C277.966 120.391 268.882 121.611 262.081 121.804C255.281 121.998 248.876 121.22 242.866 119.47C236.856 117.687 231.62 115.068 227.158 111.613C222.696 108.158 219.156 103.927 216.538 98.9219C213.92 93.8837 212.521 88.2083 212.341 81.8958C211.988 69.4985 216.636 59.4662 226.285 51.7991C235.966 44.131 248.535 40.0769 263.991 39.6367C271.572 39.4208 277.599 40.0632 282.071 41.5641C282.86 41.8348 283.287 41.9691 283.352 41.9673L284.024 65.5417C279.199 64.2137 274.785 63.6067 270.783 63.7207C263.494 63.9283 257.839 66.027 253.817 70.0168C249.794 74.0066 247.871 78.5228 248.048 83.5654C248.148 87.0796 249.19 89.932 251.173 92.1225C253.19 94.3121 255.89 95.3587 259.274 95.2623C261.096 95.2104 262.489 94.9428 263.452 94.4594C263.483 93.2536 263.471 91.7071 263.417 89.8198L263.216 82.7426C268.032 82.6055 272.847 82.4683 277.663 82.3312Z" fill="black"/>
<rect y="126" width="119" height="39" fill="#060505"/>
<rect x="119" y="126" width="174" height="39" fill="#FF2147"/>
<path d="M25.2529 149.434H16.3174L14.3105 155H11.4102L19.5547 133.672H22.0156L30.1748 155H27.2891L25.2529 149.434ZM17.167 147.119H24.418L20.7852 137.144L17.167 147.119ZM42.626 139.15L42.7139 141.143C43.9248 139.619 45.5068 138.857 47.46 138.857C50.8096 138.857 52.499 140.747 52.5283 144.526V155H49.8184V144.512C49.8086 143.369 49.5449 142.524 49.0273 141.978C48.5195 141.431 47.7236 141.157 46.6396 141.157C45.7607 141.157 44.9893 141.392 44.3252 141.86C43.6611 142.329 43.1436 142.944 42.7725 143.706V155H40.0625V139.15H42.626ZM66.4004 155C66.2441 154.688 66.1172 154.131 66.0195 153.33C64.7598 154.639 63.2559 155.293 61.5078 155.293C59.9453 155.293 58.6611 154.854 57.6553 153.975C56.6592 153.086 56.1611 151.963 56.1611 150.605C56.1611 148.955 56.7861 147.676 58.0361 146.768C59.2959 145.85 61.0635 145.391 63.3389 145.391H65.9756V144.146C65.9756 143.198 65.6924 142.446 65.126 141.89C64.5596 141.323 63.7246 141.04 62.6211 141.04C61.6543 141.04 60.8438 141.284 60.1895 141.772C59.5352 142.261 59.208 142.852 59.208 143.545H56.4834C56.4834 142.754 56.7617 141.992 57.3184 141.26C57.8848 140.518 58.6465 139.932 59.6035 139.502C60.5703 139.072 61.6299 138.857 62.7822 138.857C64.6084 138.857 66.0391 139.316 67.0742 140.234C68.1094 141.143 68.6465 142.397 68.6855 143.999V151.294C68.6855 152.749 68.8711 153.906 69.2422 154.766V155H66.4004ZM61.9033 152.935C62.7529 152.935 63.5586 152.715 64.3203 152.275C65.082 151.836 65.6338 151.265 65.9756 150.562V147.31H63.8516C60.5312 147.31 58.8711 148.281 58.8711 150.225C58.8711 151.074 59.1543 151.738 59.7207 152.217C60.2871 152.695 61.0146 152.935 61.9033 152.935ZM75.4824 139.15L75.5557 140.908C76.7178 139.541 78.2852 138.857 80.2578 138.857C82.4746 138.857 83.9834 139.707 84.7842 141.406C85.3115 140.645 85.9951 140.029 86.835 139.561C87.6846 139.092 88.6855 138.857 89.8379 138.857C93.3145 138.857 95.082 140.698 95.1406 144.38V155H92.4307V144.541C92.4307 143.408 92.1719 142.563 91.6543 142.007C91.1367 141.44 90.2676 141.157 89.0469 141.157C88.041 141.157 87.2061 141.46 86.542 142.065C85.8779 142.661 85.4922 143.467 85.3848 144.482V155H82.6602V144.614C82.6602 142.31 81.5322 141.157 79.2764 141.157C77.499 141.157 76.2832 141.914 75.6289 143.428V155H72.9189V139.15H75.4824ZM105.819 155.293C103.671 155.293 101.923 154.59 100.575 153.184C99.2275 151.768 98.5537 149.878 98.5537 147.515V147.017C98.5537 145.444 98.8516 144.043 99.4473 142.812C100.053 141.572 100.893 140.605 101.967 139.912C103.051 139.209 104.223 138.857 105.482 138.857C107.543 138.857 109.145 139.536 110.287 140.894C111.43 142.251 112.001 144.194 112.001 146.724V147.852H101.264C101.303 149.414 101.757 150.679 102.626 151.646C103.505 152.603 104.618 153.081 105.966 153.081C106.923 153.081 107.733 152.886 108.397 152.495C109.062 152.104 109.643 151.587 110.141 150.942L111.796 152.231C110.468 154.272 108.476 155.293 105.819 155.293ZM105.482 141.084C104.389 141.084 103.471 141.484 102.729 142.285C101.986 143.076 101.527 144.189 101.352 145.625H109.291V145.42C109.213 144.043 108.842 142.979 108.178 142.227C107.514 141.465 106.615 141.084 105.482 141.084ZM121.874 146.929C121.874 145.376 122.177 143.979 122.782 142.739C123.397 141.499 124.247 140.542 125.331 139.868C126.425 139.194 127.67 138.857 129.066 138.857C131.225 138.857 132.968 139.604 134.296 141.099C135.634 142.593 136.303 144.58 136.303 147.061V147.251C136.303 148.794 136.005 150.181 135.409 151.411C134.823 152.632 133.979 153.584 132.875 154.268C131.781 154.951 130.521 155.293 129.096 155.293C126.947 155.293 125.204 154.546 123.866 153.052C122.538 151.558 121.874 149.58 121.874 147.119V146.929ZM124.599 147.251C124.599 149.009 125.004 150.42 125.814 151.484C126.635 152.549 127.729 153.081 129.096 153.081C130.473 153.081 131.566 152.544 132.377 151.47C133.188 150.386 133.593 148.872 133.593 146.929C133.593 145.19 133.178 143.784 132.348 142.71C131.527 141.626 130.434 141.084 129.066 141.084C127.729 141.084 126.649 141.616 125.829 142.681C125.009 143.745 124.599 145.269 124.599 147.251ZM141.034 155V141.245H138.529V139.15H141.034V137.524C141.034 135.825 141.488 134.512 142.396 133.584C143.305 132.656 144.589 132.192 146.249 132.192C146.874 132.192 147.494 132.275 148.109 132.441L147.963 134.639C147.504 134.551 147.016 134.507 146.498 134.507C145.619 134.507 144.94 134.766 144.462 135.283C143.983 135.791 143.744 136.523 143.744 137.48V139.15H147.128V141.245H143.744V155H141.034ZM165.819 146.372H160.81V155H157.982V133.672H165.043C167.445 133.672 169.291 134.219 170.58 135.312C171.879 136.406 172.528 137.998 172.528 140.088C172.528 141.416 172.167 142.573 171.444 143.56C170.731 144.546 169.735 145.283 168.456 145.771L173.466 154.824V155H170.448L165.819 146.372ZM160.81 144.072H165.131C166.527 144.072 167.636 143.711 168.456 142.988C169.286 142.266 169.701 141.299 169.701 140.088C169.701 138.77 169.306 137.759 168.515 137.056C167.733 136.353 166.601 135.996 165.116 135.986H160.81V144.072ZM182.636 155.293C180.487 155.293 178.739 154.59 177.392 153.184C176.044 151.768 175.37 149.878 175.37 147.515V147.017C175.37 145.444 175.668 144.043 176.264 142.812C176.869 141.572 177.709 140.605 178.783 139.912C179.867 139.209 181.039 138.857 182.299 138.857C184.359 138.857 185.961 139.536 187.104 140.894C188.246 142.251 188.817 144.194 188.817 146.724V147.852H178.08C178.119 149.414 178.573 150.679 179.442 151.646C180.321 152.603 181.435 153.081 182.782 153.081C183.739 153.081 184.55 152.886 185.214 152.495C185.878 152.104 186.459 151.587 186.957 150.942L188.612 152.231C187.284 154.272 185.292 155.293 182.636 155.293ZM182.299 141.084C181.205 141.084 180.287 141.484 179.545 142.285C178.803 143.076 178.344 144.189 178.168 145.625H186.107V145.42C186.029 144.043 185.658 142.979 184.994 142.227C184.33 141.465 183.432 141.084 182.299 141.084ZM194.911 155H192.201V132.5H194.911V155ZM202.206 155H199.496V139.15H202.206V155ZM199.276 134.946C199.276 134.507 199.408 134.136 199.672 133.833C199.945 133.53 200.346 133.379 200.873 133.379C201.4 133.379 201.801 133.53 202.074 133.833C202.348 134.136 202.484 134.507 202.484 134.946C202.484 135.386 202.348 135.752 202.074 136.045C201.801 136.338 201.4 136.484 200.873 136.484C200.346 136.484 199.945 136.338 199.672 136.045C199.408 135.752 199.276 135.386 199.276 134.946ZM216.342 155C216.186 154.688 216.059 154.131 215.961 153.33C214.701 154.639 213.197 155.293 211.449 155.293C209.887 155.293 208.603 154.854 207.597 153.975C206.601 153.086 206.103 151.963 206.103 150.605C206.103 148.955 206.728 147.676 207.978 146.768C209.237 145.85 211.005 145.391 213.28 145.391H215.917V144.146C215.917 143.198 215.634 142.446 215.067 141.89C214.501 141.323 213.666 141.04 212.562 141.04C211.596 141.04 210.785 141.284 210.131 141.772C209.477 142.261 209.149 142.852 209.149 143.545H206.425C206.425 142.754 206.703 141.992 207.26 141.26C207.826 140.518 208.588 139.932 209.545 139.502C210.512 139.072 211.571 138.857 212.724 138.857C214.55 138.857 215.98 139.316 217.016 140.234C218.051 141.143 218.588 142.397 218.627 143.999V151.294C218.627 152.749 218.812 153.906 219.184 154.766V155H216.342ZM211.845 152.935C212.694 152.935 213.5 152.715 214.262 152.275C215.023 151.836 215.575 151.265 215.917 150.562V147.31H213.793C210.473 147.31 208.812 148.281 208.812 150.225C208.812 151.074 209.096 151.738 209.662 152.217C210.229 152.695 210.956 152.935 211.845 152.935ZM236.293 147.251C236.293 149.673 235.736 151.621 234.623 153.096C233.51 154.561 232.016 155.293 230.141 155.293C228.139 155.293 226.591 154.585 225.497 153.169L225.365 155H222.875V132.5H225.585V140.894C226.679 139.536 228.188 138.857 230.111 138.857C232.035 138.857 233.544 139.585 234.638 141.04C235.741 142.495 236.293 144.487 236.293 147.017V147.251ZM233.583 146.943C233.583 145.098 233.227 143.672 232.514 142.666C231.801 141.66 230.775 141.157 229.438 141.157C227.65 141.157 226.366 141.987 225.585 143.647V150.503C226.415 152.163 227.709 152.993 229.467 152.993C230.766 152.993 231.776 152.49 232.499 151.484C233.222 150.479 233.583 148.965 233.583 146.943ZM242.665 155H239.955V139.15H242.665V155ZM239.735 134.946C239.735 134.507 239.867 134.136 240.131 133.833C240.404 133.53 240.805 133.379 241.332 133.379C241.859 133.379 242.26 133.53 242.533 133.833C242.807 134.136 242.943 134.507 242.943 134.946C242.943 135.386 242.807 135.752 242.533 136.045C242.26 136.338 241.859 136.484 241.332 136.484C240.805 136.484 240.404 136.338 240.131 136.045C239.867 135.752 239.735 135.386 239.735 134.946ZM249.96 155H247.25V132.5H249.96V155ZM257.255 155H254.545V139.15H257.255V155ZM254.325 134.946C254.325 134.507 254.457 134.136 254.721 133.833C254.994 133.53 255.395 133.379 255.922 133.379C256.449 133.379 256.85 133.53 257.123 133.833C257.396 134.136 257.533 134.507 257.533 134.946C257.533 135.386 257.396 135.752 257.123 136.045C256.85 136.338 256.449 136.484 255.922 136.484C255.395 136.484 254.994 136.338 254.721 136.045C254.457 135.752 254.325 135.386 254.325 134.946ZM265.282 135.312V139.15H268.241V141.245H265.282V151.074C265.282 151.709 265.414 152.188 265.678 152.51C265.941 152.822 266.391 152.979 267.025 152.979C267.338 152.979 267.768 152.92 268.314 152.803V155C267.602 155.195 266.908 155.293 266.234 155.293C265.023 155.293 264.11 154.927 263.495 154.194C262.88 153.462 262.572 152.422 262.572 151.074V141.245H259.687V139.15H262.572V135.312H265.282ZM276.605 151.03L280.297 139.15H283.197L276.825 157.446C275.839 160.083 274.271 161.401 272.123 161.401L271.61 161.357L270.6 161.167V158.97L271.332 159.028C272.25 159.028 272.963 158.843 273.471 158.472C273.988 158.101 274.413 157.422 274.745 156.436L275.346 154.824L269.691 139.15H272.65L276.605 151.03Z" fill="white"/>
<path d="M61.4199 68.6797C61.4199 64.0898 59.7109 61.7949 56.293 61.7949C54.8281 61.7949 52.7936 62.332 50.1895 63.4062L43.6953 66.0918V85.1836C55.5117 80.7891 61.4199 75.2878 61.4199 68.6797ZM90.4238 69.5098C90.4238 79.9264 85.2806 88.1947 74.9941 94.3145L96.1855 122H57.6113L43.8906 99.3926V122H12.0059V44.0215C32.6439 42.5566 46.1693 41.8242 52.582 41.8242C58.9948 41.8242 63.8776 42.2148 67.2305 42.9961C76.4753 45.112 83.0833 49.6367 87.0547 56.5703C89.2682 60.5417 90.3913 64.8548 90.4238 69.5098ZM105.658 44.0215H116.84L154.535 79.4219L193.256 44.0215H204.047V122H171.967V96.707L152.045 118.582L132.66 97.293V122H105.658V44.0215Z" fill="#FF2147"/>
</svg>
