<svg width="119" height="119" viewBox="0 0 119 119" fill="none" xmlns="http://www.w3.org/2000/svg">
<circle cx="59.2062" cy="59.2061" r="45" stroke="#52B9EA" stroke-width="3" stroke-dasharray="40 50 60 90"/>
<path d="M70.1199 37.933C72.9174 37.9649 75.5887 39.1025 77.5502 41.0974C79.5118 43.0923 80.6043 45.7824 80.5891 48.5801L80.4113 69.6941C80.3793 72.4917 79.2417 75.1629 77.2468 77.1245C75.2519 79.0861 72.5619 80.1785 69.7642 80.1633L48.6502 79.9854C45.8526 79.9535 43.1814 78.8159 41.2198 76.821C39.2582 74.8261 38.1658 72.1361 38.181 69.3384L38.3588 48.2244C38.3908 45.4268 39.5284 42.7555 41.5233 40.794C43.5181 38.8324 46.2082 37.7399 49.0059 37.7551L70.1199 37.933V37.933ZM70.1555 33.7104L49.0414 33.5326C45.1248 33.511 41.3587 35.0403 38.5659 37.7864C35.7731 40.5325 34.1806 44.2723 34.1363 48.1888L33.9584 69.3028C33.9368 73.2195 35.4661 76.9855 38.2122 79.7783C40.9583 82.5711 44.6981 84.1636 48.6146 84.208L69.7285 84.3858C73.6452 84.4074 77.4113 82.8781 80.2041 80.132C82.9968 77.3859 84.5893 73.6461 84.6337 69.7296L84.8116 48.6156C84.8332 44.699 83.3038 40.9329 80.5577 38.1402C77.8116 35.3474 74.0719 33.7549 70.1555 33.7105L70.1555 33.7104Z" fill="#52B9EA"/>
<path d="M73.5115 48.518C72.6741 48.509 71.8744 48.1679 71.2883 47.5697C70.7022 46.9715 70.3776 46.1651 70.3857 45.3276C70.3938 44.4902 70.734 43.6902 71.3316 43.1035C71.9292 42.5167 72.7353 42.1912 73.5727 42.1984C74.4102 42.2056 75.2105 42.545 75.7979 43.1419C76.3853 43.7389 76.7117 44.5446 76.7054 45.382C76.699 46.2195 76.3606 47.0202 75.7643 47.6083C75.1679 48.1963 74.3626 48.5235 73.5251 48.5181L73.5115 48.518Z" fill="#52B9EA"/>
<path d="M59.7694 50.5129C61.4399 50.527 63.0687 51.0361 64.4499 51.9759C65.831 52.9157 66.9025 54.2439 67.5288 55.7927C68.155 57.3414 68.308 59.0411 67.9683 60.6768C67.6286 62.3124 66.8115 63.8106 65.6203 64.9819C64.4291 66.1532 62.9174 66.9449 61.2762 67.257C59.635 67.5691 57.9382 67.3875 56.4002 66.7353C54.8623 66.083 53.5522 64.9893 52.6358 63.5925C51.7194 62.1957 51.2379 60.5585 51.2519 58.888C51.2613 57.7788 51.489 56.6824 51.9221 55.6612C52.3552 54.64 52.9852 53.7141 53.7761 52.9364C54.567 52.1587 55.5034 51.5444 56.5317 51.1286C57.56 50.7127 58.6602 50.5035 59.7694 50.5129ZM59.8049 46.2903C57.2993 46.2692 54.8437 46.9916 52.7485 48.3661C50.6534 49.7406 49.0129 51.7055 48.0345 54.0124C47.0562 56.3192 46.7838 58.8644 47.252 61.326C47.7201 63.7876 48.9076 66.0552 50.6645 67.8419C52.4213 69.6286 54.6685 70.8542 57.1219 71.3637C59.5753 71.8733 62.1247 71.6439 64.4477 70.7045C66.7707 69.7651 68.763 68.158 70.1726 66.0864C71.5822 64.0147 72.3459 61.5716 72.367 59.0659V59.0659C72.3953 55.7059 71.0877 52.4723 68.7319 50.0765C66.376 47.6806 63.1649 46.3187 59.8049 46.2903L59.8049 46.2903Z" fill="#52B9EA"/>
</svg>
