<svg width="94" height="94" viewBox="0 0 94 94" fill="none" xmlns="http://www.w3.org/2000/svg">
<path d="M57.488 25.7269C60.2856 25.7589 62.9568 26.8965 64.9184 28.8914C66.88 30.8863 67.9724 33.5763 67.9572 36.374L67.7794 57.488C67.7475 60.2856 66.6098 62.9569 64.6149 64.9184C62.6201 66.88 59.93 67.9725 57.1324 67.9572L36.0183 67.7794C33.2208 67.7475 30.5495 66.6098 28.588 64.615C26.6264 62.6201 25.5339 59.93 25.5491 57.1323L25.727 36.0183C25.7589 33.2207 26.8965 30.5495 28.8914 28.5879C30.8863 26.6263 33.5764 25.5339 36.3741 25.5491L57.488 25.7269ZM57.5236 21.5044L36.4096 21.3265C32.4929 21.3049 28.7269 22.8342 25.9341 25.5803C23.1413 28.3265 21.5488 32.0662 21.5044 35.9827L21.3265 57.0967C21.3049 61.0134 22.8342 64.7795 25.5803 67.5723C28.3265 70.365 32.0663 71.9576 35.9827 72.002L57.0967 72.1798C61.0134 72.2014 64.7795 70.6721 67.5722 67.926C70.365 65.1798 71.9575 61.4401 72.0019 57.5236L72.1798 36.4096C72.2013 32.4929 70.672 28.7269 67.9259 25.9341C65.1798 23.1414 61.4401 21.5488 57.5236 21.5044L57.5236 21.5044Z" fill="#52B9EA"/>
<path d="M60.8797 36.3119C60.0422 36.3029 59.2426 35.9618 58.6565 35.3636C58.0704 34.7654 57.7458 33.959 57.7539 33.1216C57.762 32.2841 58.1022 31.4841 58.6998 30.8974C59.2974 30.3107 60.1035 29.9851 60.9409 29.9923C61.7784 29.9996 62.5787 30.3389 63.1661 30.9359C63.7535 31.5328 64.0798 32.3385 64.0735 33.176C64.0672 34.0134 63.7288 34.8142 63.1324 35.4022C62.5361 35.9902 61.7307 36.3175 60.8933 36.312L60.8797 36.3119Z" fill="#52B9EA"/>
<path d="M47.1376 38.3068C48.8081 38.3209 50.4369 38.83 51.818 39.7698C53.1992 40.7096 54.2707 42.0379 54.8969 43.5866C55.5232 45.1354 55.6762 46.835 55.3365 48.4707C54.9967 50.1064 54.1796 51.6046 52.9884 52.7759C51.7973 53.9471 50.2855 54.7389 48.6444 55.051C47.0032 55.3631 45.3064 55.1815 43.7684 54.5292C42.2304 53.8769 40.9204 52.7832 40.004 51.3864C39.0876 49.9896 38.606 48.3525 38.6201 46.682C38.6294 45.5728 38.8572 44.4763 39.2903 43.4551C39.7234 42.4339 40.3534 41.5081 41.1443 40.7304C41.9352 39.9527 42.8715 39.3384 43.8999 38.9225C44.9282 38.5067 46.0284 38.2975 47.1376 38.3068ZM47.1731 34.0843C44.6674 34.0631 42.2118 34.7855 40.1167 36.16C38.0216 37.5345 36.3811 39.4995 35.4027 41.8063C34.4243 44.1132 34.152 46.6583 34.6201 49.12C35.0882 51.5816 36.2758 53.8491 38.0326 55.6358C39.7895 57.4225 42.0367 58.6481 44.4901 59.1577C46.9435 59.6672 49.4928 59.4378 51.8159 58.4984C54.1389 57.5591 56.1311 55.9519 57.5408 53.8803C58.9504 51.8087 59.7141 49.3655 59.7352 46.8599C59.7635 43.4999 58.4559 40.2663 56.1 37.8704C53.7442 35.4745 50.5331 34.1126 47.1731 34.0843L47.1731 34.0843Z" fill="#52B9EA"/>
<circle cx="47" cy="47" r="45" stroke="#52B9EA" stroke-width="3" stroke-dasharray="40 10 100 60"/>
</svg>
