<svg width="128" height="130" viewBox="0 0 128 130" fill="none" xmlns="http://www.w3.org/2000/svg">
<path d="M86 115C86 148.098 35.6661 115 4.87096 115C-25.9241 115 99.3706 110.176 99.3706 77.0788C99.3706 43.9812 19.2049 0 50 0C80.7951 0 86 81.9024 86 115Z" fill="#42E87A" fill-opacity="0.29"/>
<path d="M91.488 51.7269C94.2856 51.7589 96.9568 52.8965 98.9184 54.8914C100.88 56.8863 101.972 59.5763 101.957 62.374L101.779 83.488C101.748 86.2856 100.61 88.9569 98.6149 90.9184C96.6201 92.88 93.93 93.9725 91.1324 93.9572L70.0183 93.7794C67.2208 93.7475 64.5495 92.6098 62.588 90.615C60.6264 88.6201 59.5339 85.93 59.5491 83.1323L59.727 62.0183C59.7589 59.2207 60.8965 56.5495 62.8914 54.5879C64.8863 52.6263 67.5764 51.5339 70.3741 51.5491L91.488 51.7269V51.7269ZM91.5236 47.5044L70.4096 47.3265C66.4929 47.3049 62.7269 48.8342 59.9341 51.5803C57.1413 54.3265 55.5488 58.0662 55.5044 61.9827L55.3265 83.0967C55.3049 87.0134 56.8342 90.7795 59.5803 93.5723C62.3265 96.365 66.0663 97.9576 69.9827 98.002L91.0967 98.1798C95.0134 98.2014 98.7795 96.6721 101.572 93.926C104.365 91.1798 105.957 87.4401 106.002 83.5236L106.18 62.4096C106.201 58.4929 104.672 54.7269 101.926 51.9341C99.1798 49.1414 95.4401 47.5488 91.5236 47.5044L91.5236 47.5044Z" fill="#52B9EA"/>
<path d="M94.8797 62.3119C94.0422 62.3029 93.2426 61.9618 92.6565 61.3636C92.0704 60.7654 91.7458 59.959 91.7539 59.1216C91.762 58.2841 92.1022 57.4841 92.6998 56.8974C93.2974 56.3107 94.1035 55.9851 94.9409 55.9923C95.7784 55.9996 96.5787 56.3389 97.1661 56.9359C97.7535 57.5328 98.0798 58.3385 98.0735 59.176C98.0672 60.0134 97.7288 60.8142 97.1324 61.4022C96.5361 61.9902 95.7307 62.3175 94.8933 62.312L94.8797 62.3119Z" fill="#52B9EA"/>
<path d="M81.1376 64.3068C82.8081 64.3209 84.4369 64.83 85.818 65.7698C87.1992 66.7096 88.2707 68.0379 88.8969 69.5866C89.5232 71.1354 89.6762 72.835 89.3365 74.4707C88.9967 76.1064 88.1796 77.6046 86.9884 78.7759C85.7973 79.9471 84.2855 80.7389 82.6444 81.051C81.0032 81.3631 79.3064 81.1815 77.7684 80.5292C76.2304 79.8769 74.9204 78.7832 74.004 77.3864C73.0876 75.9896 72.606 74.3525 72.6201 72.682C72.6294 71.5728 72.8572 70.4763 73.2903 69.4551C73.7234 68.4339 74.3534 67.5081 75.1443 66.7304C75.9352 65.9527 76.8715 65.3384 77.8999 64.9225C78.9282 64.5067 80.0284 64.2975 81.1376 64.3068ZM81.1731 60.0843C78.6674 60.0631 76.2118 60.7855 74.1167 62.16C72.0216 63.5345 70.3811 65.4995 69.4027 67.8063C68.4243 70.1132 68.152 72.6583 68.6201 75.12C69.0882 77.5816 70.2758 79.8491 72.0326 81.6358C73.7895 83.4225 76.0367 84.6481 78.4901 85.1577C80.9435 85.6672 83.4928 85.4378 85.8159 84.4984C88.1389 83.5591 90.1311 81.9519 91.5408 79.8803C92.9504 77.8087 93.7141 75.3655 93.7352 72.8599V72.8599C93.7635 69.4999 92.4559 66.2663 90.1 63.8704C87.7442 61.4745 84.5331 60.1126 81.1731 60.0843L81.1731 60.0843Z" fill="#52B9EA"/>
<circle cx="81" cy="73" r="45" stroke="#52B9EA" stroke-width="3" stroke-dasharray="40 10 100 60"/>
</svg>
