<svg width="94" height="94" viewBox="0 0 94 94" fill="none" xmlns="http://www.w3.org/2000/svg">
<circle cx="47" cy="47" r="45" stroke="#52B9EA" stroke-width="3" stroke-dasharray="40 10 100 60"/>
<path d="M65.6637 24.4226L28.6011 24.606C27.6413 24.5642 26.7041 24.9053 25.9959 25.5545C25.2876 26.2036 24.8661 27.1074 24.8243 28.0672L24.8236 28.0834L25.0075 65.2282C25.0381 66.2274 25.4505 67.1769 26.1598 67.8812C26.8691 68.5856 27.8215 68.9913 28.8208 69.0149L65.8726 68.8316C66.8474 68.7885 67.7659 68.3631 68.4293 67.6475C69.0926 66.9319 69.4472 65.9837 69.4163 65.0084L69.2325 27.8636C69.2432 26.9607 68.8948 26.0905 68.2639 25.4445C67.6331 24.7985 66.7714 24.4296 65.8686 24.4188C65.8003 24.4181 65.732 24.4193 65.6637 24.4226ZM38.7555 61.5737L32.3935 61.6052L32.2956 41.8244L38.6576 41.7929L38.7555 61.5737ZM35.6817 38.8L35.6361 38.8003C34.7208 38.7989 33.8433 38.4348 33.1959 37.7876C32.5486 37.1405 32.1842 36.2631 32.1825 35.3478C32.1809 34.4325 32.5422 33.5538 33.1872 32.9043C33.8322 32.2549 34.7083 31.8875 35.6237 31.8829C36.539 31.8782 37.4188 32.2366 38.0704 32.8794C38.722 33.5223 39.0922 34.3972 39.0999 35.3125C39.1076 36.2278 38.7521 37.1089 38.1114 37.7626C37.4707 38.4163 36.597 38.7893 35.6817 38.8ZM62.0066 61.4587L55.6447 61.4901L55.5912 50.6744C55.5784 48.0832 54.6438 46.3174 52.342 46.3288C51.6221 46.338 50.9228 46.5705 50.3405 46.994C49.7583 47.4175 49.3219 48.0112 49.0913 48.6932C48.9244 49.1967 48.8524 49.7268 48.879 50.2566L48.9347 61.5234L42.5728 61.5548L42.4749 41.774L48.8368 41.7426L48.8504 44.4953C49.4247 43.4905 50.2592 42.659 51.266 42.0881C52.2728 41.5172 53.4148 41.2282 54.572 41.2512C58.7482 41.2305 61.921 43.9677 61.9504 49.9024L62.0066 61.4587Z" fill="#52B9EA"/>
</svg>
