<svg width="112" height="130" viewBox="0 0 112 130" fill="none" xmlns="http://www.w3.org/2000/svg">
<path d="M86 115C86 148.098 35.6661 115 4.87096 115C-25.9241 115 99.3706 110.176 99.3706 77.0788C99.3706 43.9812 19.2049 0 50 0C80.7951 0 86 81.9024 86 115Z" fill="#42E87A" fill-opacity="0.29"/>
<circle cx="65" cy="74" r="45" stroke="#52B9EA" stroke-width="3" stroke-dasharray="40 10 100 60"/>
<path d="M83.6637 51.4226L46.6011 51.606C45.6413 51.5642 44.7041 51.9053 43.9959 52.5545C43.2876 53.2036 42.8661 54.1074 42.8243 55.0672L42.8236 55.0834L43.0075 92.2282C43.0381 93.2274 43.4505 94.1769 44.1598 94.8812C44.8691 95.5856 45.8215 95.9913 46.8208 96.0149L83.8726 95.8316C84.8474 95.7885 85.7659 95.3631 86.4293 94.6475C87.0926 93.9319 87.4472 92.9837 87.4163 92.0084L87.2325 54.8636C87.2432 53.9607 86.8948 53.0905 86.2639 52.4445C85.6331 51.7985 84.7714 51.4296 83.8686 51.4188C83.8003 51.4181 83.732 51.4193 83.6637 51.4226ZM56.7555 88.5737L50.3935 88.6052L50.2956 68.8244L56.6576 68.7929L56.7555 88.5737ZM53.6817 65.8L53.6361 65.8003C52.7208 65.7989 51.8433 65.4348 51.1959 64.7876C50.5486 64.1405 50.1842 63.2631 50.1825 62.3478C50.1809 61.4325 50.5422 60.5538 51.1872 59.9043C51.8322 59.2549 52.7083 58.8875 53.6237 58.8829C54.539 58.8782 55.4188 59.2366 56.0704 59.8794C56.722 60.5223 57.0922 61.3972 57.0999 62.3125C57.1076 63.2278 56.7521 64.1089 56.1114 64.7626C55.4707 65.4163 54.597 65.7893 53.6817 65.8ZM80.0066 88.4587L73.6447 88.4901L73.5912 77.6744C73.5784 75.0832 72.6438 73.3174 70.342 73.3288C69.6221 73.338 68.9228 73.5705 68.3405 73.994C67.7583 74.4175 67.3219 75.0112 67.0913 75.6932C66.9244 76.1967 66.8524 76.7268 66.879 77.2566L66.9347 88.5234L60.5728 88.5548L60.4749 68.774L66.8368 68.7426L66.8504 71.4953C67.4247 70.4905 68.2592 69.659 69.266 69.0881C70.2728 68.5172 71.4148 68.2282 72.572 68.2512C76.7482 68.2305 79.921 70.9677 79.9504 76.9024L80.0066 88.4587Z" fill="#52B9EA"/>
</svg>
