<svg width="347" height="399" viewBox="0 0 347 399" fill="none" xmlns="http://www.w3.org/2000/svg">
<path d="M347 71.3621C347 104.116 269.321 130.668 173.5 130.668C77.6786 130.668 0 104.116 0 71.3621C0 38.6081 280.599 -119.93 173.5 399C269.321 399 347 38.6081 347 71.3621Z" fill="#42E87A" fill-opacity="0.29"/>
<path d="M251.847 0H137.153C118.872 0 104 15.7372 104 35.0812V154.982C104 159.411 104.137 163.895 104.406 168.31L112.702 304.371C113.339 314.817 121.587 323 131.479 323H257.52C267.413 323 275.661 314.817 276.298 304.371L284.594 168.31C284.863 163.896 285 159.411 285 154.982V35.0812C285 15.7372 270.128 0 251.847 0ZM276.04 154.982C276.04 159.208 275.909 163.487 275.653 167.699L267.357 303.76C267.023 309.232 262.702 313.519 257.521 313.519H131.479C126.298 313.519 121.977 309.232 121.643 303.76L113.347 167.699C113.091 163.487 112.96 159.208 112.96 154.982V35.0812C112.96 20.9653 123.813 9.48141 137.153 9.48141H251.847C265.187 9.48141 276.04 20.9653 276.04 35.0812V154.982Z" fill="#52B9EA"/>
<path d="M251.847 293.292H137.154C134.679 293.292 132.673 295.414 132.673 298.032C132.673 300.65 134.679 302.773 137.154 302.773H251.847C254.321 302.773 256.327 300.65 256.327 298.032C256.327 295.414 254.321 293.292 251.847 293.292Z" fill="#52B9EA"/>
<path d="M184.942 85.3327C187.417 85.3327 189.423 83.2101 189.423 80.592V70.4785C189.423 67.8604 187.417 65.7378 184.942 65.7378C182.468 65.7378 180.462 67.8604 180.462 70.4785V80.592C180.462 83.2101 182.468 85.3327 184.942 85.3327Z" fill="#52B9EA"/>
<path d="M165.827 85.3327C168.301 85.3327 170.307 83.2101 170.307 80.592V70.4785C170.307 67.8604 168.301 65.7378 165.827 65.7378C163.352 65.7378 161.346 67.8604 161.346 70.4785V80.592C161.346 83.2101 163.352 85.3327 165.827 85.3327Z" fill="#52B9EA"/>
<path d="M204.058 85.3327C206.532 85.3327 208.538 83.2101 208.538 80.592V70.4785C208.538 67.8604 206.532 65.7378 204.058 65.7378C201.584 65.7378 199.578 67.8604 199.578 70.4785V80.592C199.578 83.2101 201.584 85.3327 204.058 85.3327Z" fill="#52B9EA"/>
<path d="M223.173 85.3327C225.648 85.3327 227.654 83.2101 227.654 80.592V70.4785C227.654 67.8604 225.648 65.7378 223.173 65.7378C220.699 65.7378 218.693 67.8604 218.693 70.4785V80.592C218.693 83.2101 220.699 85.3327 223.173 85.3327Z" fill="#52B9EA"/>
<path d="M144.322 191.524H158.658C165.081 191.524 170.307 185.995 170.307 179.199C170.307 172.402 165.081 166.873 158.658 166.873H144.322C137.899 166.873 132.673 172.402 132.673 179.199C132.673 185.995 137.899 191.524 144.322 191.524ZM144.322 176.354H158.658C160.141 176.354 161.347 177.63 161.347 179.199C161.347 180.767 160.141 182.043 158.658 182.043H144.322C142.84 182.043 141.634 180.767 141.634 179.199C141.634 177.63 142.84 176.354 144.322 176.354Z" fill="#52B9EA"/>
<path d="M187.332 191.524H201.668C208.091 191.524 213.317 185.995 213.317 179.199C213.317 172.402 208.091 166.873 201.668 166.873H187.332C180.909 166.873 175.683 172.402 175.683 179.199C175.683 185.995 180.909 191.524 187.332 191.524ZM187.332 176.354H201.668C203.15 176.354 204.356 177.63 204.356 179.199C204.356 180.767 203.15 182.043 201.668 182.043H187.332C185.85 182.043 184.644 180.767 184.644 179.199C184.644 177.63 185.85 176.354 187.332 176.354Z" fill="#52B9EA"/>
<path d="M244.678 166.873H230.342C223.919 166.873 218.693 172.402 218.693 179.199C218.693 185.995 223.919 191.524 230.342 191.524H244.678C251.101 191.524 256.327 185.995 256.327 179.199C256.327 172.402 251.101 166.873 244.678 166.873ZM244.678 182.043H230.342C228.86 182.043 227.654 180.767 227.654 179.199C227.654 177.63 228.86 176.354 230.342 176.354H244.678C246.16 176.354 247.366 177.63 247.366 179.199C247.366 180.767 246.16 182.043 244.678 182.043Z" fill="#52B9EA"/>
<path d="M144.322 221.865H158.658C165.081 221.865 170.307 216.335 170.307 209.539C170.307 202.743 165.081 197.213 158.658 197.213H144.322C137.899 197.213 132.673 202.743 132.673 209.539C132.673 216.335 137.899 221.865 144.322 221.865ZM144.322 206.695H158.658C160.141 206.695 161.347 207.971 161.347 209.539C161.347 211.107 160.141 212.384 158.658 212.384H144.322C142.84 212.384 141.634 211.107 141.634 209.539C141.634 207.971 142.84 206.695 144.322 206.695Z" fill="#52B9EA"/>
<path d="M187.332 221.865H201.668C208.091 221.865 213.317 216.335 213.317 209.539C213.317 202.743 208.091 197.213 201.668 197.213H187.332C180.909 197.213 175.683 202.743 175.683 209.539C175.683 216.335 180.909 221.865 187.332 221.865ZM187.332 206.695H201.668C203.15 206.695 204.356 207.971 204.356 209.539C204.356 211.107 203.15 212.384 201.668 212.384H187.332C185.85 212.384 184.644 211.107 184.644 209.539C184.644 207.971 185.85 206.695 187.332 206.695Z" fill="#52B9EA"/>
<path d="M244.678 197.213H230.342C223.919 197.213 218.693 202.743 218.693 209.539C218.693 216.335 223.919 221.865 230.342 221.865H244.678C251.101 221.865 256.327 216.335 256.327 209.539C256.327 202.743 251.101 197.213 244.678 197.213ZM244.678 212.384H230.342C228.86 212.384 227.654 211.107 227.654 209.539C227.654 207.971 228.86 206.695 230.342 206.695H244.678C246.16 206.695 247.366 207.971 247.366 209.539C247.366 211.107 246.16 212.384 244.678 212.384Z" fill="#52B9EA"/>
<path d="M144.322 252.205H158.658C165.081 252.205 170.307 246.676 170.307 239.88C170.307 233.083 165.081 227.554 158.658 227.554H144.322C137.899 227.554 132.673 233.083 132.673 239.88C132.673 246.676 137.899 252.205 144.322 252.205ZM144.322 237.035H158.658C160.141 237.035 161.347 238.311 161.347 239.88C161.347 241.448 160.141 242.724 158.658 242.724H144.322C142.84 242.724 141.634 241.448 141.634 239.88C141.634 238.311 142.84 237.035 144.322 237.035Z" fill="#52B9EA"/>
<path d="M187.332 252.205H201.668C208.091 252.205 213.317 246.676 213.317 239.88C213.317 233.083 208.091 227.554 201.668 227.554H187.332C180.909 227.554 175.683 233.083 175.683 239.88C175.683 246.676 180.909 252.205 187.332 252.205ZM187.332 237.035H201.668C203.15 237.035 204.356 238.311 204.356 239.88C204.356 241.448 203.15 242.724 201.668 242.724H187.332C185.85 242.724 184.644 241.448 184.644 239.88C184.644 238.311 185.85 237.035 187.332 237.035Z" fill="#52B9EA"/>
<path d="M244.678 227.554H230.342C223.919 227.554 218.693 233.083 218.693 239.88C218.693 246.676 223.919 252.205 230.342 252.205H244.678C251.101 252.205 256.327 246.676 256.327 239.88C256.327 233.083 251.101 227.554 244.678 227.554ZM244.678 242.724H230.342C228.86 242.724 227.654 241.448 227.654 239.88C227.654 238.311 228.86 237.035 230.342 237.035H244.678C246.16 237.035 247.366 238.311 247.366 239.88C247.366 241.448 246.16 242.724 244.678 242.724Z" fill="#52B9EA"/>
<path d="M144.322 282.546H158.658C165.081 282.546 170.307 277.016 170.307 270.22C170.307 263.424 165.081 257.894 158.658 257.894H144.322C137.899 257.894 132.673 263.424 132.673 270.22C132.673 277.016 137.899 282.546 144.322 282.546ZM144.322 267.376H158.658C160.141 267.376 161.347 268.652 161.347 270.22C161.347 271.788 160.141 273.065 158.658 273.065H144.322C142.84 273.065 141.634 271.788 141.634 270.22C141.634 268.652 142.84 267.376 144.322 267.376Z" fill="#52B9EA"/>
<path d="M187.332 282.546H201.668C208.091 282.546 213.317 277.016 213.317 270.22C213.317 263.424 208.091 257.894 201.668 257.894H187.332C180.909 257.894 175.683 263.424 175.683 270.22C175.683 277.016 180.909 282.546 187.332 282.546ZM187.332 267.376H201.668C203.15 267.376 204.356 268.652 204.356 270.22C204.356 271.788 203.15 273.065 201.668 273.065H187.332C185.85 273.065 184.644 271.788 184.644 270.22C184.644 268.652 185.85 267.376 187.332 267.376Z" fill="#52B9EA"/>
<path d="M244.678 257.894H230.342C223.919 257.894 218.693 263.424 218.693 270.22C218.693 277.016 223.919 282.546 230.342 282.546H244.678C251.101 282.546 256.327 277.016 256.327 270.22C256.327 263.424 251.101 257.894 244.678 257.894ZM244.678 273.065H230.342C228.86 273.065 227.654 271.788 227.654 270.22C227.654 268.652 228.86 267.376 230.342 267.376H244.678C246.16 267.376 247.366 268.652 247.366 270.22C247.366 271.788 246.16 273.065 244.678 273.065Z" fill="#52B9EA"/>
<path d="M251.847 35.3972H137.153C129.413 35.3972 123.115 42.0608 123.115 50.2514V141.273C123.115 149.464 129.413 156.127 137.153 156.127H251.847C259.587 156.127 265.884 149.464 265.884 141.273V50.2514C265.884 42.0608 259.587 35.3972 251.847 35.3972ZM190.02 135.9V146.646H165.528V135.9H190.02ZM198.98 135.9H223.472V146.646H198.98V135.9ZM137.153 126.419C135.363 126.419 133.652 126.779 132.076 127.429V114.664C133.652 115.313 135.363 115.674 137.153 115.674H251.847C253.637 115.674 255.348 115.313 256.924 114.664V127.429C255.348 126.779 253.637 126.419 251.847 126.419H137.153ZM132.076 50.2514C132.076 47.2888 134.354 44.8786 137.153 44.8786H251.847C254.646 44.8786 256.924 47.2888 256.924 50.2514V100.819C256.924 103.782 254.646 106.192 251.847 106.192H137.153C134.354 106.192 132.076 103.782 132.076 100.819V50.2514ZM132.076 141.273C132.076 138.31 134.354 135.9 137.153 135.9H156.568V146.646H137.153C134.354 146.646 132.076 144.236 132.076 141.273ZM251.847 146.646H232.432V135.9H251.847C254.646 135.9 256.924 138.31 256.924 141.273C256.924 144.236 254.646 146.646 251.847 146.646Z" fill="#52B9EA"/>
</svg>
