<svg width="48" height="59" viewBox="0 0 48 59" fill="none" xmlns="http://www.w3.org/2000/svg">
<path d="M31.3631 1.30347H4.68C2.64759 1.30347 1 2.95106 1 4.98347V53.5658C1 55.5982 2.64759 57.2458 4.68 57.2458H31.3631C33.3955 57.2458 35.0431 55.5982 35.0431 53.5658V4.98347C35.0431 2.95106 33.3955 1.30347 31.3631 1.30347Z" fill="#52B9EA"/>
<path d="M31.2112 48.3208H4.83183C4.57402 48.3203 4.32691 48.2176 4.14461 48.0353C3.96231 47.853 3.85966 47.6059 3.85913 47.3481V8.44169C3.85969 8.18389 3.96234 7.9368 4.14464 7.7545C4.32694 7.57221 4.57403 7.46955 4.83183 7.46899H31.2112C31.469 7.46955 31.7161 7.57221 31.8984 7.7545C32.0807 7.9368 32.1834 8.18389 32.1839 8.44169V47.3481C32.1918 47.4779 32.172 47.6078 32.1259 47.7294C32.0797 47.851 32.0084 47.9614 31.9164 48.0533C31.8245 48.1452 31.7141 48.2166 31.5925 48.2627C31.471 48.3088 31.341 48.3286 31.2112 48.3208V48.3208Z" fill="#E0EBB5"/>
<path d="M33.1037 1C30.5313 0.999356 28.0162 1.76001 25.8753 3.18615C23.7345 4.61228 22.0635 6.6401 21.073 9.01415C20.0825 11.3882 19.8167 14.0023 20.3091 16.5271C20.8016 19.052 22.0302 21.3746 23.8403 23.2024L21.1674 31.784L28.3407 26.1603C30.1249 26.8617 32.0419 27.1607 33.955 27.0362C35.8681 26.9116 37.7301 26.3665 39.4083 25.4396C41.0865 24.5128 42.5396 23.2271 43.6638 21.6743C44.7881 20.1214 45.5559 18.3396 45.9125 16.456C46.2691 14.5723 46.2057 12.6331 45.7268 10.7768C45.2479 8.92043 44.3654 7.1926 43.1421 5.7165C41.9187 4.2404 40.3848 3.05238 38.6496 2.23717C36.9145 1.42196 35.0208 0.999631 33.1037 1.0003V1Z" fill="#42E87A"/>
<path d="M32.1839 30.7928V47.3481C32.1918 47.4779 32.172 47.6078 32.1259 47.7294C32.0797 47.851 32.0084 47.9614 31.9164 48.0533C31.8245 48.1452 31.7141 48.2166 31.5925 48.2627C31.471 48.3088 31.341 48.3286 31.2112 48.3208H4.83183C4.57402 48.3203 4.32691 48.2176 4.14461 48.0353C3.96231 47.853 3.85966 47.6059 3.85913 47.3481V8.44169C3.85969 8.18389 3.96234 7.9368 4.14464 7.7545C4.32694 7.57221 4.57403 7.46955 4.83183 7.46899H18.3903" stroke="black" stroke-width="2" stroke-linecap="round" stroke-linejoin="round"/>
<path d="M18.0217 54.5224C19.0961 54.5224 19.967 53.6515 19.967 52.5771C19.967 51.5028 19.0961 50.6318 18.0217 50.6318C16.9474 50.6318 16.0764 51.5028 16.0764 52.5771C16.0764 53.6515 16.9474 54.5224 18.0217 54.5224Z" fill="black"/>
<path d="M20.1528 4.55103H13.1582" stroke="black" stroke-width="2" stroke-linecap="round" stroke-linejoin="round"/>
<path d="M35.0432 30.1858V53.5658C35.0404 54.5409 34.6517 55.4753 33.9622 56.1648C33.2727 56.8543 32.3383 57.2429 31.3632 57.2458H4.68C3.70488 57.2429 2.77051 56.8543 2.08099 56.1648C1.39148 55.4753 1.00285 54.5409 1 53.5658V4.98347C1.00285 4.00835 1.39148 3.07398 2.08099 2.38446C2.77051 1.69494 3.70488 1.30632 4.68 1.30347H23.7892" stroke="black" stroke-width="2" stroke-linecap="round" stroke-linejoin="round"/>
<path d="M33.7104 19.6637V13.9187H30.8074" stroke="black" stroke-width="2.5" stroke-linecap="round" stroke-linejoin="round"/>
<path d="M36.47 19.6638H30.7412" stroke="black" stroke-width="2.5" stroke-linecap="round" stroke-linejoin="round"/>
<path d="M33.4071 10.8362C34.4616 10.8362 35.3164 9.98136 35.3164 8.92688C35.3164 7.8724 34.4616 7.01758 33.4071 7.01758C32.3526 7.01758 31.4978 7.8724 31.4978 8.92688C31.4978 9.98136 32.3526 10.8362 33.4071 10.8362Z" fill="black"/>
<path d="M33.1036 1C30.5035 0.998042 27.9624 1.7742 25.8072 3.2286C23.652 4.683 21.9814 6.74907 21.0103 9.16094C20.0392 11.5728 19.8121 14.2201 20.3582 16.7621C20.9043 19.3042 22.1987 21.6246 24.0747 23.4248L21.471 31.7848L28.5476 26.2369C30.3344 26.9044 32.2461 27.1715 34.1475 27.0192C36.0489 26.867 37.8937 26.2991 39.5516 25.3557C41.2095 24.4123 42.64 23.1164 43.7421 21.5596C44.8443 20.0028 45.5912 18.2229 45.9301 16.3458C46.269 14.4686 46.1916 12.5399 45.7034 10.696C45.2152 8.85201 44.3281 7.13773 43.1048 5.67418C41.8814 4.21064 40.3517 3.03354 38.6235 2.22602C36.8954 1.4185 35.0111 1.00024 33.1036 1.0008V1Z" stroke="#42E87A" stroke-opacity="0.29" stroke-width="2" stroke-linecap="round" stroke-linejoin="round"/>
</svg>
