<svg width="285" height="101" viewBox="0 0 285 101" fill="none" xmlns="http://www.w3.org/2000/svg">
<path d="M76.71 32.3398C76.71 30.0449 75.8555 28.8975 74.1465 28.8975C73.4141 28.8975 72.3968 29.166 71.0947 29.7031L67.8477 31.0459V40.5918C73.7559 38.3945 76.71 35.6439 76.71 32.3398ZM91.2119 32.7549C91.2119 37.9632 88.6403 42.0973 83.4971 45.1572L94.0928 59H74.8057L67.9453 47.6963V59H52.0029V20.0107C62.3219 19.2783 69.0846 18.9121 72.291 18.9121C75.4974 18.9121 77.9388 19.1074 79.6152 19.498C84.2376 20.556 87.5417 22.8184 89.5273 26.2852C90.6341 28.2708 91.1956 30.4274 91.2119 32.7549ZM111.329 20.0107H116.92L135.768 37.7109L155.128 20.0107H160.523V59H144.483V46.3535L134.522 57.291L124.83 46.6465V59H111.329V20.0107Z" fill="#FF2147"/>
<path d="M214.18 40.4453L217.915 40.4209C218.826 40.4209 219.355 40.4128 219.502 40.3965V58.5117C213.789 59.472 209.232 59.9521 205.83 59.9521C202.428 59.9521 199.238 59.472 196.26 58.5117C193.281 57.5352 190.701 56.1517 188.521 54.3613C186.34 52.571 184.631 50.4062 183.394 47.8672C182.157 45.3118 181.538 42.4554 181.538 39.2979C181.538 33.0967 184.004 28.1488 188.936 24.4541C193.883 20.7594 200.223 18.9121 207.954 18.9121C211.746 18.9121 214.749 19.319 216.963 20.1328C217.354 20.2793 217.565 20.3525 217.598 20.3525V32.1445C215.205 31.4121 213.008 31.0459 211.006 31.0459C207.36 31.0459 204.504 32.0143 202.437 33.9512C200.369 35.888 199.344 38.1178 199.36 40.6406C199.36 42.3984 199.84 43.8389 200.801 44.9619C201.777 46.085 203.112 46.6465 204.805 46.6465C205.716 46.6465 206.416 46.5326 206.904 46.3047C206.937 45.7025 206.953 44.9294 206.953 43.9854V40.4453C209.362 40.4453 211.771 40.4453 214.18 40.4453Z" fill="black"/>
<rect y="67" width="111" height="34" fill="black"/>
<rect x="111" y="67" width="174" height="34" fill="#FF2147"/>
<path d="M11.3223 91L19.0762 76.1953C19.3431 75.668 19.8346 75.3164 20.5508 75.1406C20.7591 75.0885 21.0163 75.0625 21.3223 75.0625C21.6283 75.0625 21.9603 75.1504 22.3184 75.3262C22.6829 75.4954 22.9694 75.7656 23.1777 76.1367L31.498 91H23.5781L22.9629 89.457H18.7441L18.2168 91H11.3223ZM19.2227 86.3613H22.377L20.8828 82.1426L19.2227 86.3613ZM44.5449 82.1621C44.0241 82.1621 43.7637 82.582 43.7637 83.4219V91H37.9629V78.8613H41.166L42.5625 80.7559C43.0833 80.0332 43.8027 79.4603 44.7207 79.0371C45.6452 78.6139 46.5078 78.4023 47.3086 78.4023C48.7799 78.4023 49.9453 78.793 50.8047 79.5742C51.6706 80.3555 52.1035 81.4036 52.1035 82.7188V91H46.2637V85.1406C46.2637 83.1549 45.6908 82.1621 44.5449 82.1621ZM55.7363 89.9258C55.2155 89.4375 54.7988 88.8255 54.4863 88.0898C54.1803 87.3477 54.0273 86.5501 54.0273 85.6973C54.0273 84.8444 54.112 84.1055 54.2812 83.4805C54.6198 82.237 55.2122 81.1921 56.0586 80.3457C56.4622 79.929 56.9115 79.5775 57.4062 79.291C58.4219 78.6986 59.4928 78.4023 60.6191 78.4023C61.752 78.4023 62.7448 78.7767 63.5977 79.5254C63.8711 79.7663 64.1087 80.043 64.3105 80.3555L65.707 78.8613H68.9102V91H65.707L64.3105 88.9785C63.2428 90.554 61.625 91.3451 59.457 91.3516C58.8581 91.3581 58.2168 91.2409 57.5332 91C56.8561 90.7656 56.2572 90.4076 55.7363 89.9258ZM63.6465 82.543C63.4121 82.4062 63.1322 82.3379 62.8066 82.3379C62.4811 82.3379 62.1361 82.4551 61.7715 82.6895C61.4134 82.9173 61.0911 83.207 60.8047 83.5586C60.1667 84.3464 59.8477 85.1471 59.8477 85.9609C59.8477 86.5339 60.0234 86.9375 60.375 87.1719C60.7005 87.3867 61.1953 87.3574 61.8594 87.084C62.5299 86.804 63.1257 86.4427 63.6465 86V82.543ZM84.1836 80.5215C85.2904 79.1087 86.6966 78.4023 88.4023 78.4023C88.8711 78.4023 89.3529 78.5 89.8477 78.6953C90.349 78.8906 90.7852 79.1738 91.1562 79.5449C91.9635 80.3522 92.3672 81.4102 92.3672 82.7188V91H86.7031V84.7402C86.7031 83.9395 86.5762 83.3112 86.3223 82.8555C86.0684 82.3932 85.7656 82.1621 85.4141 82.1621C85.069 82.1556 84.8411 82.3802 84.7305 82.8359C84.6979 82.9661 84.6816 83.1126 84.6816 83.2754V91H79.1445V84.7402C79.1445 83.9395 79.0046 83.3112 78.7246 82.8555C78.4512 82.3932 78.1517 82.1621 77.8262 82.1621C77.3053 82.1621 77.0449 82.582 77.0449 83.4219V91H71.2441V78.8613H74.4473L75.8438 80.7559C76.319 80.0397 76.9961 79.4701 77.875 79.0469C78.7604 78.6172 79.6621 78.4023 80.5801 78.4023C81.7715 78.4023 82.7578 78.806 83.5391 79.6133C83.793 79.8737 84.0078 80.1764 84.1836 80.5215ZM102.582 82.3379C102.582 81.765 102.315 81.4785 101.781 81.4785C101.169 81.5371 100.772 81.8529 100.59 82.4258C100.499 82.6992 100.434 83.0182 100.395 83.3828C100.362 83.7409 100.31 84.125 100.238 84.5352L102.377 84.0566L102.562 82.5625L102.582 82.3379ZM101.264 86.7812C101.264 86.7812 101.085 86.7812 100.727 86.7812C100.557 86.7812 100.395 86.7747 100.238 86.7617C100.238 87.5365 100.652 87.9596 101.479 88.0312C101.706 88.0508 101.928 88.0605 102.143 88.0605C102.696 88.0605 103.389 87.9336 104.223 87.6797C105.062 87.4258 105.814 87.0124 106.479 86.4395L107.084 89.4766C105.632 90.7331 103.438 91.3613 100.502 91.3613C98.8158 91.3613 97.3672 90.8698 96.1562 89.8867C94.8411 88.8125 94.1836 87.3249 94.1836 85.4238C94.1836 83.9915 94.5547 82.7057 95.2969 81.5664C95.987 80.5247 96.9212 79.7337 98.0996 79.1934C99.278 78.653 100.551 78.3828 101.918 78.3828C103.689 78.3828 105.027 78.7702 105.932 79.5449C106.843 80.3197 107.296 81.2767 107.289 82.416C107.289 83.5553 106.745 84.5677 105.658 85.4531C104.571 86.3385 103.106 86.7812 101.264 86.7812ZM122.758 82.3184C122.628 82.2533 122.458 82.2207 122.25 82.2207C122.048 82.2207 121.824 82.2826 121.576 82.4062C121.329 82.5234 121.085 82.6862 120.844 82.8945C120.336 83.3372 119.91 83.8743 119.564 84.5059C119.219 85.1374 119.047 85.7201 119.047 86.2539C119.047 86.7812 119.249 87.1361 119.652 87.3184C119.796 87.3835 119.971 87.416 120.18 87.416C120.388 87.416 120.606 87.3542 120.834 87.2305C121.062 87.1003 121.29 86.9277 121.518 86.7129C121.993 86.2637 122.41 85.7201 122.768 85.082C123.126 84.4375 123.305 83.8613 123.305 83.3535C123.305 82.8457 123.122 82.5007 122.758 82.3184ZM120.863 91.3613C119.001 91.3613 117.396 90.7721 116.049 89.5938C114.61 88.3438 113.891 86.7715 113.891 84.877C113.891 82.9759 114.564 81.4232 115.912 80.2188C117.26 79.0078 118.923 78.4023 120.902 78.4023C122.882 78.4023 124.545 78.9948 125.893 80.1797C127.24 81.3581 127.917 82.9368 127.924 84.916C127.93 86.1855 127.608 87.3086 126.957 88.2852C126.306 89.2617 125.437 90.0169 124.35 90.5508C123.262 91.0846 122.1 91.3548 120.863 91.3613ZM139.037 77.2012C138.718 77.11 138.402 77.0645 138.09 77.0645C137.523 77.0645 137.09 77.2272 136.791 77.5527C136.498 77.8717 136.332 78.3079 136.293 78.8613H139.057V81.957H136.293V91H130.453V81.957H129.34V78.8613H130.453V76.8008C130.453 75.7201 130.883 74.8639 131.742 74.2324C132.602 73.6009 133.747 73.2852 135.18 73.2852C136.612 73.2786 137.898 73.6107 139.037 74.2812V77.2012ZM155.717 80.3359C155.717 79.418 155.375 78.959 154.691 78.959C154.398 78.959 153.992 79.0664 153.471 79.2812L152.172 79.8184V83.6367C154.535 82.7578 155.717 81.6576 155.717 80.3359ZM161.518 80.502C161.518 82.5853 160.489 84.2389 158.432 85.4629L162.67 91H154.955L152.211 86.4785V91H145.834V75.4043C149.962 75.1113 152.667 74.9648 153.949 74.9648C155.232 74.9648 156.208 75.043 156.879 75.1992C158.728 75.6224 160.049 76.5273 160.844 77.9141C161.286 78.7083 161.511 79.571 161.518 80.502ZM171.645 82.3379C171.645 81.765 171.378 81.4785 170.844 81.4785C170.232 81.5371 169.835 81.8529 169.652 82.4258C169.561 82.6992 169.496 83.0182 169.457 83.3828C169.424 83.7409 169.372 84.125 169.301 84.5352L171.439 84.0566L171.625 82.5625L171.645 82.3379ZM170.326 86.7812C170.326 86.7812 170.147 86.7812 169.789 86.7812C169.62 86.7812 169.457 86.7747 169.301 86.7617C169.301 87.5365 169.714 87.9596 170.541 88.0312C170.769 88.0508 170.99 88.0605 171.205 88.0605C171.758 88.0605 172.452 87.9336 173.285 87.6797C174.125 87.4258 174.877 87.0124 175.541 86.4395L176.146 89.4766C174.695 90.7331 172.501 91.3613 169.564 91.3613C167.878 91.3613 166.43 90.8698 165.219 89.8867C163.904 88.8125 163.246 87.3249 163.246 85.4238C163.246 83.9915 163.617 82.7057 164.359 81.5664C165.049 80.5247 165.984 79.7337 167.162 79.1934C168.34 78.653 169.613 78.3828 170.98 78.3828C172.751 78.3828 174.089 78.7702 174.994 79.5449C175.906 80.3197 176.358 81.2767 176.352 82.416C176.352 83.5553 175.808 84.5677 174.721 85.4531C173.633 86.3385 172.169 86.7812 170.326 86.7812ZM183.969 91H178.432V74.5645H183.969V91ZM189.35 73.2363C190.307 73.2363 191.016 73.4382 191.479 73.8418C191.941 74.2389 192.169 74.7467 192.162 75.3652C192.162 75.9837 191.866 76.5534 191.273 77.0742C190.688 77.5951 189.903 77.8555 188.92 77.8555C187.54 77.8555 186.68 77.4388 186.342 76.6055C186.244 76.3711 186.195 76.1107 186.195 75.8242C186.195 75.5378 186.264 75.2383 186.4 74.9258C186.537 74.6133 186.742 74.3333 187.016 74.0859C187.621 73.5195 188.399 73.2363 189.35 73.2363ZM191.996 91H186.342V78.8613H191.996V91ZM195.717 89.9258C195.196 89.4375 194.779 88.8255 194.467 88.0898C194.161 87.3477 194.008 86.5501 194.008 85.6973C194.008 84.8444 194.092 84.1055 194.262 83.4805C194.6 82.237 195.193 81.1921 196.039 80.3457C196.443 79.929 196.892 79.5775 197.387 79.291C198.402 78.6986 199.473 78.4023 200.6 78.4023C201.732 78.4023 202.725 78.7767 203.578 79.5254C203.852 79.7663 204.089 80.043 204.291 80.3555L205.688 78.8613H208.891V91H205.688L204.291 88.9785C203.223 90.554 201.605 91.3451 199.438 91.3516C198.839 91.3581 198.197 91.2409 197.514 91C196.837 90.7656 196.238 90.4076 195.717 89.9258ZM203.627 82.543C203.393 82.4062 203.113 82.3379 202.787 82.3379C202.462 82.3379 202.117 82.4551 201.752 82.6895C201.394 82.9173 201.072 83.207 200.785 83.5586C200.147 84.3464 199.828 85.1471 199.828 85.9609C199.828 86.5339 200.004 86.9375 200.355 87.1719C200.681 87.3867 201.176 87.3574 201.84 87.084C202.51 86.804 203.106 86.4427 203.627 86V82.543ZM220.512 91.0293C219.639 91.2637 218.445 91.3809 216.928 91.3809C215.411 91.3809 213.516 91.2018 211.244 90.8438V74.5645H216.928V80.2969C217.768 79.5026 218.786 78.998 219.984 78.7832C220.31 78.7246 220.596 78.6953 220.844 78.6953C222.543 78.6953 223.865 79.265 224.809 80.4043C225.753 81.5436 226.225 82.9368 226.225 84.584C226.225 85.4629 225.974 86.3776 225.473 87.3281C224.496 89.1771 222.842 90.4108 220.512 91.0293ZM219.74 82.7578C218.887 82.7578 217.94 83.1842 216.898 84.0371V87.7188H217.865C218.516 87.7188 219.151 87.3249 219.77 86.5371C220.395 85.7428 220.707 84.929 220.707 84.0957C220.707 83.5033 220.535 83.0964 220.189 82.875C220.066 82.7969 219.916 82.7578 219.74 82.7578ZM231.166 73.2363C232.123 73.2363 232.833 73.4382 233.295 73.8418C233.757 74.2389 233.985 74.7467 233.979 75.3652C233.979 75.9837 233.682 76.5534 233.09 77.0742C232.504 77.5951 231.719 77.8555 230.736 77.8555C229.356 77.8555 228.497 77.4388 228.158 76.6055C228.061 76.3711 228.012 76.1107 228.012 75.8242C228.012 75.5378 228.08 75.2383 228.217 74.9258C228.354 74.6133 228.559 74.3333 228.832 74.0859C229.438 73.5195 230.215 73.2363 231.166 73.2363ZM233.812 91H228.158V78.8613H233.812V91ZM241.742 91H236.205V74.5645H241.742V91ZM247.123 73.2363C248.08 73.2363 248.79 73.4382 249.252 73.8418C249.714 74.2389 249.942 74.7467 249.936 75.3652C249.936 75.9837 249.639 76.5534 249.047 77.0742C248.461 77.5951 247.676 77.8555 246.693 77.8555C245.313 77.8555 244.454 77.4388 244.115 76.6055C244.018 76.3711 243.969 76.1107 243.969 75.8242C243.969 75.5378 244.037 75.2383 244.174 74.9258C244.311 74.6133 244.516 74.3333 244.789 74.0859C245.395 73.5195 246.173 73.2363 247.123 73.2363ZM249.77 91H244.115V78.8613H249.77V91ZM261.322 90.1211C260.085 90.9609 258.773 91.3809 257.387 91.3809C256.007 91.3809 254.883 90.9902 254.018 90.209C253.152 89.4212 252.719 88.3633 252.719 87.0352V81.957H251.605V78.8613H252.719V75.5801L258.559 74.9844V78.8613H261.322V81.957H258.559V85.0234C258.559 85.9414 258.764 86.6087 259.174 87.0254C259.59 87.4355 260.307 87.6406 261.322 87.6406V90.1211ZM263.9 90.7363C264.59 90.9251 265.456 91.0195 266.498 91.0195C267.156 91.0195 267.595 90.7396 267.816 90.1797C267.882 90.0104 267.914 89.8346 267.914 89.6523C267.914 89.4701 267.882 89.278 267.816 89.0762L262.797 78.8613H268.617L270.717 83.5586L272.68 78.8613H277.797L273.236 90.1992C272.631 91.6771 271.964 92.7676 271.234 93.4707C270.342 94.3301 269.242 94.7598 267.934 94.7598C266.143 94.7598 264.799 94.5742 263.9 94.2031V90.7363Z" fill="white"/>
</svg>
