<svg width="139" height="65" viewBox="0 0 139 65" fill="none" xmlns="http://www.w3.org/2000/svg">
<path d="M122 2.67819e-10C122 19.33 20.3303 64.9979 1.00032 64.9979C-5.00004 0.998421 139 49.3279 139 29.9979C139 10.6679 11.67 64.998 31 64.998C50.33 64.998 161 59 122 2.67819e-10Z" fill="#3CEBA3" fill-opacity="0.8"/>
<path d="M56.9 38.12C56.96 38.32 56.99 38.51 56.99 38.69C56.99 39.01 56.89 39.27 56.69 39.47C56.51 39.65 56.26 39.74 55.94 39.74C55.82 39.74 55.72 39.73 55.64 39.71C54.74 39.51 54.03 39.29 53.51 39.05C53.11 38.87 52.37 38.42 51.29 37.7C50.47 37.16 49.79 36.74 49.25 36.44C48.55 36.06 47.8 35.8 47 35.66C46.64 35.6 45.79 35.5 44.45 35.36C43.85 35.32 43.41 35.28 43.13 35.24L42.59 39.68L42.62 40.16C42.62 40.88 42.53 41.36 42.35 41.6C42.19 41.84 41.85 41.96 41.33 41.96C40.79 41.96 40.32 41.79 39.92 41.45C39.52 41.11 39.32 40.69 39.32 40.19C39.32 38.67 39.4 37.32 39.56 36.14C40.12 32.52 41.41 28.76 43.43 24.86C44.57 22.68 46.32 21 48.68 19.82C49.44 19.44 50.21 19.25 50.99 19.25C51.79 19.25 52.53 19.46 53.21 19.88C53.91 20.28 54.49 20.87 54.95 21.65C55.37 22.35 55.58 23.03 55.58 23.69C55.58 24.61 55.22 25.54 54.5 26.48C53.64 27.6 52.42 29.19 50.84 31.25L48.89 33.77C48.91 33.77 48.93 33.8 48.95 33.86C48.99 33.9 49.03 33.94 49.07 33.98L49.73 34.34C51.39 35.24 52.61 35.95 53.39 36.47C54.15 36.93 54.96 37.16 55.82 37.16C56.08 37.16 56.28 37.15 56.42 37.13C56.48 37.23 56.56 37.38 56.66 37.58C56.76 37.78 56.84 37.96 56.9 38.12ZM45.8 32.18C46.62 31.26 47.44 30.3 48.26 29.3C49.1 28.3 49.84 27.36 50.48 26.48C50.74 26.12 50.96 25.74 51.14 25.34C51.32 24.92 51.48 24.5 51.62 24.08C51.78 23.66 51.89 23.36 51.95 23.18C51.97 23.12 51.98 23.02 51.98 22.88C51.98 22.72 51.96 22.52 51.92 22.28C51.88 22.04 51.85 21.87 51.83 21.77C50.37 22.21 49.04 23.11 47.84 24.47C46.64 25.83 45.69 27.34 44.99 29C44.31 30.66 43.96 32.09 43.94 33.29C44.34 33.33 44.65 33.26 44.87 33.08C45.11 32.9 45.42 32.6 45.8 32.18ZM83.5536 33.65C83.5736 33.45 83.5836 33.14 83.5836 32.72C83.6036 32.58 83.6136 32.35 83.6136 32.03L82.9236 32.69C82.3436 33.23 81.8936 33.63 81.5736 33.89C81.1136 34.23 80.7136 34.39 80.3736 34.37C79.5936 34.31 78.9236 34.15 78.3636 33.89C77.8236 33.61 77.4136 33.14 77.1336 32.48L75.8736 29.42C75.8536 29.44 75.7936 29.51 75.6936 29.63C75.6136 29.73 75.5536 29.84 75.5136 29.96C74.6336 32.06 73.7336 34.3 72.8136 36.68C72.2936 38.02 71.8436 39.35 71.4636 40.67C71.3636 41.01 71.1936 41.25 70.9536 41.39C70.7336 41.53 70.4436 41.6 70.0836 41.6C69.5036 41.6 68.9536 41.39 68.4336 40.97C67.9336 40.55 67.6836 40.04 67.6836 39.44C67.6836 39.22 67.7336 38.98 67.8336 38.72C68.2736 37.56 68.5936 36.69 68.7936 36.11C69.8136 33.37 70.6836 31.17 71.4036 29.51C72.1436 27.83 73.0536 26.21 74.1336 24.65C74.5536 24.03 74.8236 23.66 74.9436 23.54C75.3036 23.1 75.7536 22.88 76.2936 22.88C76.4136 22.88 76.5736 22.9 76.7736 22.94C77.5936 23.1 78.1436 23.25 78.4236 23.39C78.7236 23.51 78.9236 23.72 79.0236 24.02C79.1436 24.3 79.2736 24.85 79.4136 25.67L79.9536 29.48C80.3736 29.24 80.8436 28.85 81.3636 28.31C81.9036 27.75 82.4136 27.13 82.8936 26.45C82.8336 26.53 83.1436 26.13 83.8236 25.25C84.0436 24.99 84.3536 24.6 84.7536 24.08C85.0936 23.6 85.5436 23.36 86.1036 23.36C86.3036 23.36 86.5036 23.39 86.7036 23.45C87.4236 23.61 87.9436 23.85 88.2636 24.17C88.5836 24.49 88.7436 24.95 88.7436 25.55C88.7436 25.91 88.7036 26.28 88.6236 26.66L87.9936 29.78C87.2336 33.66 86.8136 35.84 86.7336 36.32L85.7736 41.9C85.6336 42.86 85.4036 44.28 85.0836 46.16C85.0636 46.38 84.9936 46.69 84.8736 47.09C84.8136 47.27 84.7236 47.58 84.6036 48.02C84.4836 48.46 84.4036 48.85 84.3636 49.19C84.3236 49.53 84.2236 49.78 84.0636 49.94C83.9036 50.12 83.6636 50.22 83.3436 50.24C82.9636 50.26 82.6536 50.17 82.4136 49.97C82.1736 49.79 82.0436 49.52 82.0236 49.16L81.9936 47.18C81.9936 46.52 82.0236 45.86 82.0836 45.2C82.3436 42.88 82.6436 40.53 82.9836 38.15L83.5536 33.65ZM112.916 20.9C114.016 21.04 114.936 21.61 115.676 22.61C115.416 22.99 115.136 23.27 114.836 23.45C114.556 23.61 114.206 23.7 113.786 23.72C112.046 23.74 110.556 23.81 109.316 23.93C108.096 24.05 106.796 24.45 105.416 25.13C104.056 25.81 103.286 26.9 103.106 28.4C102.566 29.5 102.296 30.79 102.296 32.27C102.296 33.03 102.386 34 102.566 35.18C102.806 36.7 103.556 37.46 104.816 37.46C105.136 37.46 105.386 37.44 105.566 37.4C106.626 37.22 107.686 36.82 108.746 36.2C109.346 35.82 109.946 35.39 110.546 34.91C111.146 34.41 111.506 34.12 111.626 34.04L112.406 33.41C112.626 33.21 112.786 33.03 112.886 32.87C113.006 32.69 113.066 32.47 113.066 32.21C113.066 32.11 113.046 31.96 113.006 31.76C112.326 31.82 111.326 31.89 110.006 31.97L109.136 32.03C108.756 32.07 108.186 32.11 107.426 32.15C106.606 32.15 105.956 31.96 105.476 31.58C105.016 31.18 104.656 30.53 104.396 29.63C104.456 29.59 104.526 29.53 104.606 29.45C104.686 29.37 104.756 29.33 104.816 29.33L105.866 29.21C108.166 28.93 109.916 28.76 111.116 28.7C112.096 28.64 113.236 28.72 114.536 28.94C116.336 29.24 117.236 30.07 117.236 31.43C117.236 31.93 117.136 32.45 116.936 32.99C116.836 33.29 116.676 33.64 116.456 34.04C115.996 35.02 115.366 35.87 114.566 36.59C113.766 37.31 112.796 38 111.656 38.66C110.756 39.2 109.966 39.62 109.286 39.92C108.606 40.22 107.886 40.4 107.126 40.46C106.946 40.48 106.666 40.49 106.286 40.49C104.546 40.49 102.966 39.9 101.546 38.72C100.846 38.12 100.306 37.48 99.9263 36.8C99.5663 36.1 99.3563 35.31 99.2963 34.43C99.2563 33.83 99.2363 33.41 99.2363 33.17C99.2363 32.03 99.3763 30.97 99.6563 29.99C99.9363 28.99 100.466 27.44 101.246 25.34C102.026 23.64 103.286 22.45 105.026 21.77C106.766 21.07 108.606 20.72 110.546 20.72C111.366 20.72 112.156 20.78 112.916 20.9Z" fill="black"/>
</svg>
