<svg width="230" height="78" viewBox="0 0 230 78" fill="none" xmlns="http://www.w3.org/2000/svg">
<path d="M69.626 20.0039C69.626 18.627 69.1133 17.9385 68.0879 17.9385C67.6484 17.9385 67.0381 18.0996 66.2568 18.4219L64.3086 19.2275V24.9551C67.8535 23.6367 69.626 21.9863 69.626 20.0039ZM78.3271 20.2529C78.3271 23.3779 76.7842 25.8584 73.6982 27.6943L80.0557 36H68.4834L64.3672 29.2178V36H54.8018V12.6064C60.9932 12.167 65.0508 11.9473 66.9746 11.9473C68.8984 11.9473 70.3633 12.0645 71.3691 12.2988C74.1426 12.9336 76.125 14.291 77.3164 16.3711C77.9805 17.5625 78.3174 18.8564 78.3271 20.2529ZM90.3975 12.6064H93.752L105.061 23.2266L116.677 12.6064H119.914V36H110.29V28.4121L104.313 34.9746L98.498 28.5879V36H90.3975V12.6064Z" fill="#52B9EA" fill-opacity="0.5"/>
<path d="M151.508 24.8672L153.749 24.8525C154.296 24.8525 154.613 24.8477 154.701 24.8379V35.707C151.273 36.2832 148.539 36.5713 146.498 36.5713C144.457 36.5713 142.543 36.2832 140.756 35.707C138.969 35.1211 137.421 34.291 136.112 33.2168C134.804 32.1426 133.778 30.8438 133.036 29.3203C132.294 27.7871 131.923 26.0732 131.923 24.1787C131.923 20.458 133.402 17.4893 136.361 15.2725C139.33 13.0557 143.134 11.9473 147.772 11.9473C150.048 11.9473 151.85 12.1914 153.178 12.6797C153.412 12.7676 153.539 12.8115 153.559 12.8115V19.8867C152.123 19.4473 150.805 19.2275 149.604 19.2275C147.416 19.2275 145.702 19.8086 144.462 20.9707C143.222 22.1328 142.606 23.4707 142.616 24.9844C142.616 26.0391 142.904 26.9033 143.48 27.5771C144.066 28.251 144.867 28.5879 145.883 28.5879C146.43 28.5879 146.85 28.5195 147.143 28.3828C147.162 28.0215 147.172 27.5576 147.172 26.9912V24.8672C148.617 24.8672 150.062 24.8672 151.508 24.8672Z" fill="black" fill-opacity="0.5"/>
<rect y="44" width="88" height="34" fill="black" fill-opacity="0.5"/>
<rect x="88" y="44" width="142" height="34" fill="#52B9EA" fill-opacity="0.5"/>
<path d="M8.25781 70L14.4609 58.1562C14.6745 57.7344 15.0677 57.4531 15.6406 57.3125C15.8073 57.2708 16.013 57.25 16.2578 57.25C16.5026 57.25 16.7682 57.3203 17.0547 57.4609C17.3464 57.5964 17.5755 57.8125 17.7422 58.1094L24.3984 70H18.0625L17.5703 68.7656H14.1953L13.7734 70H8.25781ZM14.5781 66.2891H17.1016L15.9062 62.9141L14.5781 66.2891ZM34.8359 62.9297C34.4193 62.9297 34.2109 63.2656 34.2109 63.9375V70H29.5703V60.2891H32.1328L33.25 61.8047C33.6667 61.2266 34.2422 60.7682 34.9766 60.4297C35.7161 60.0911 36.4062 59.9219 37.0469 59.9219C38.224 59.9219 39.1562 60.2344 39.8438 60.8594C40.5365 61.4844 40.8828 62.3229 40.8828 63.375V70H36.2109V65.3125C36.2109 63.724 35.7526 62.9297 34.8359 62.9297ZM43.7891 69.1406C43.3724 68.75 43.0391 68.2604 42.7891 67.6719C42.5443 67.0781 42.4219 66.4401 42.4219 65.7578C42.4219 65.0755 42.4896 64.4844 42.625 63.9844C42.8958 62.9896 43.3698 62.1536 44.0469 61.4766C44.3698 61.1432 44.7292 60.862 45.125 60.6328C45.9375 60.1589 46.7943 59.9219 47.6953 59.9219C48.6016 59.9219 49.3958 60.2214 50.0781 60.8203C50.2969 61.013 50.487 61.2344 50.6484 61.4844L51.7656 60.2891H54.3281V70H51.7656L50.6484 68.3828C49.7943 69.6432 48.5 70.276 46.7656 70.2812C46.2865 70.2865 45.7734 70.1927 45.2266 70C44.6849 69.8125 44.2057 69.526 43.7891 69.1406ZM50.1172 63.2344C49.9297 63.125 49.7057 63.0703 49.4453 63.0703C49.1849 63.0703 48.9089 63.1641 48.6172 63.3516C48.3307 63.5339 48.0729 63.7656 47.8438 64.0469C47.3333 64.6771 47.0781 65.3177 47.0781 65.9688C47.0781 66.4271 47.2188 66.75 47.5 66.9375C47.7604 67.1094 48.1562 67.0859 48.6875 66.8672C49.224 66.6432 49.7005 66.3542 50.1172 66V63.2344ZM66.5469 61.6172C67.4323 60.487 68.5573 59.9219 69.9219 59.9219C70.2969 59.9219 70.6823 60 71.0781 60.1562C71.4792 60.3125 71.8281 60.5391 72.125 60.8359C72.7708 61.4818 73.0938 62.3281 73.0938 63.375V70H68.5625V64.9922C68.5625 64.3516 68.4609 63.849 68.2578 63.4844C68.0547 63.1146 67.8125 62.9297 67.5312 62.9297C67.2552 62.9245 67.0729 63.1042 66.9844 63.4688C66.9583 63.5729 66.9453 63.6901 66.9453 63.8203V70H62.5156V64.9922C62.5156 64.3516 62.4036 63.849 62.1797 63.4844C61.9609 63.1146 61.7214 62.9297 61.4609 62.9297C61.0443 62.9297 60.8359 63.2656 60.8359 63.9375V70H56.1953V60.2891H58.7578L59.875 61.8047C60.2552 61.2318 60.7969 60.776 61.5 60.4375C62.2083 60.0938 62.9297 59.9219 63.6641 59.9219C64.6172 59.9219 65.4062 60.2448 66.0312 60.8906C66.2344 61.099 66.4062 61.3411 66.5469 61.6172ZM81.2656 63.0703C81.2656 62.612 81.0521 62.3828 80.625 62.3828C80.1354 62.4297 79.8177 62.6823 79.6719 63.1406C79.599 63.3594 79.5469 63.6146 79.5156 63.9062C79.4896 64.1927 79.4479 64.5 79.3906 64.8281L81.1016 64.4453L81.25 63.25L81.2656 63.0703ZM80.2109 66.625C80.2109 66.625 80.0677 66.625 79.7812 66.625C79.6458 66.625 79.5156 66.6198 79.3906 66.6094C79.3906 67.2292 79.7214 67.5677 80.3828 67.625C80.5651 67.6406 80.7422 67.6484 80.9141 67.6484C81.3568 67.6484 81.9115 67.5469 82.5781 67.3438C83.25 67.1406 83.8516 66.8099 84.3828 66.3516L84.8672 68.7812C83.7057 69.7865 81.9505 70.2891 79.6016 70.2891C78.2526 70.2891 77.0938 69.8958 76.125 69.1094C75.0729 68.25 74.5469 67.0599 74.5469 65.5391C74.5469 64.3932 74.8438 63.3646 75.4375 62.4531C75.9896 61.6198 76.737 60.987 77.6797 60.5547C78.6224 60.1224 79.6406 59.9062 80.7344 59.9062C82.151 59.9062 83.2214 60.2161 83.9453 60.8359C84.6745 61.4557 85.0365 62.2214 85.0312 63.1328C85.0312 64.0443 84.5964 64.8542 83.7266 65.5625C82.8568 66.2708 81.6849 66.625 80.2109 66.625ZM97.4062 63.0547C97.3021 63.0026 97.1667 62.9766 97 62.9766C96.8385 62.9766 96.6589 63.026 96.4609 63.125C96.263 63.2188 96.0677 63.349 95.875 63.5156C95.4688 63.8698 95.1276 64.2995 94.8516 64.8047C94.5755 65.3099 94.4375 65.776 94.4375 66.2031C94.4375 66.625 94.599 66.9089 94.9219 67.0547C95.0365 67.1068 95.1771 67.1328 95.3438 67.1328C95.5104 67.1328 95.6849 67.0833 95.8672 66.9844C96.0495 66.8802 96.2318 66.7422 96.4141 66.5703C96.7943 66.2109 97.1276 65.776 97.4141 65.2656C97.7005 64.75 97.8438 64.2891 97.8438 63.8828C97.8438 63.4766 97.6979 63.2005 97.4062 63.0547ZM95.8906 70.2891C94.401 70.2891 93.1172 69.8177 92.0391 68.875C90.888 67.875 90.3125 66.6172 90.3125 65.1016C90.3125 63.5807 90.8516 62.3385 91.9297 61.375C93.0078 60.4062 94.3385 59.9219 95.9219 59.9219C97.5052 59.9219 98.8359 60.3958 99.9141 61.3438C100.992 62.2865 101.534 63.5495 101.539 65.1328C101.544 66.1484 101.286 67.0469 100.766 67.8281C100.245 68.6094 99.5495 69.2135 98.6797 69.6406C97.8099 70.0677 96.8802 70.2839 95.8906 70.2891ZM110.43 58.9609C110.174 58.888 109.922 58.8516 109.672 58.8516C109.219 58.8516 108.872 58.9818 108.633 59.2422C108.398 59.4974 108.266 59.8464 108.234 60.2891H110.445V62.7656H108.234V70H103.562V62.7656H102.672V60.2891H103.562V58.6406C103.562 57.776 103.906 57.0911 104.594 56.5859C105.281 56.0807 106.198 55.8281 107.344 55.8281C108.49 55.8229 109.518 56.0885 110.43 56.625V58.9609ZM123.773 61.4688C123.773 60.7344 123.5 60.3672 122.953 60.3672C122.719 60.3672 122.393 60.4531 121.977 60.625L120.938 61.0547V64.1094C122.828 63.4062 123.773 62.526 123.773 61.4688ZM128.414 61.6016C128.414 63.2682 127.591 64.5911 125.945 65.5703L129.336 70H123.164L120.969 66.3828V70H115.867V57.5234C119.169 57.2891 121.333 57.1719 122.359 57.1719C123.385 57.1719 124.167 57.2344 124.703 57.3594C126.182 57.6979 127.24 58.4219 127.875 59.5312C128.229 60.1667 128.409 60.8568 128.414 61.6016ZM136.516 63.0703C136.516 62.612 136.302 62.3828 135.875 62.3828C135.385 62.4297 135.068 62.6823 134.922 63.1406C134.849 63.3594 134.797 63.6146 134.766 63.9062C134.74 64.1927 134.698 64.5 134.641 64.8281L136.352 64.4453L136.5 63.25L136.516 63.0703ZM135.461 66.625C135.461 66.625 135.318 66.625 135.031 66.625C134.896 66.625 134.766 66.6198 134.641 66.6094C134.641 67.2292 134.971 67.5677 135.633 67.625C135.815 67.6406 135.992 67.6484 136.164 67.6484C136.607 67.6484 137.161 67.5469 137.828 67.3438C138.5 67.1406 139.102 66.8099 139.633 66.3516L140.117 68.7812C138.956 69.7865 137.201 70.2891 134.852 70.2891C133.503 70.2891 132.344 69.8958 131.375 69.1094C130.323 68.25 129.797 67.0599 129.797 65.5391C129.797 64.3932 130.094 63.3646 130.688 62.4531C131.24 61.6198 131.987 60.987 132.93 60.5547C133.872 60.1224 134.891 59.9062 135.984 59.9062C137.401 59.9062 138.471 60.2161 139.195 60.8359C139.924 61.4557 140.286 62.2214 140.281 63.1328C140.281 64.0443 139.846 64.8542 138.977 65.5625C138.107 66.2708 136.935 66.625 135.461 66.625ZM146.375 70H141.945V56.8516H146.375V70ZM150.68 55.7891C151.445 55.7891 152.013 55.9505 152.383 56.2734C152.753 56.5911 152.935 56.9974 152.93 57.4922C152.93 57.987 152.693 58.4427 152.219 58.8594C151.75 59.276 151.122 59.4844 150.336 59.4844C149.232 59.4844 148.544 59.151 148.273 58.4844C148.195 58.2969 148.156 58.0885 148.156 57.8594C148.156 57.6302 148.211 57.3906 148.32 57.1406C148.43 56.8906 148.594 56.6667 148.812 56.4688C149.297 56.0156 149.919 55.7891 150.68 55.7891ZM152.797 70H148.273V60.2891H152.797V70ZM155.773 69.1406C155.357 68.75 155.023 68.2604 154.773 67.6719C154.529 67.0781 154.406 66.4401 154.406 65.7578C154.406 65.0755 154.474 64.4844 154.609 63.9844C154.88 62.9896 155.354 62.1536 156.031 61.4766C156.354 61.1432 156.714 60.862 157.109 60.6328C157.922 60.1589 158.779 59.9219 159.68 59.9219C160.586 59.9219 161.38 60.2214 162.062 60.8203C162.281 61.013 162.471 61.2344 162.633 61.4844L163.75 60.2891H166.312V70H163.75L162.633 68.3828C161.779 69.6432 160.484 70.276 158.75 70.2812C158.271 70.2865 157.758 70.1927 157.211 70C156.669 69.8125 156.19 69.526 155.773 69.1406ZM162.102 63.2344C161.914 63.125 161.69 63.0703 161.43 63.0703C161.169 63.0703 160.893 63.1641 160.602 63.3516C160.315 63.5339 160.057 63.7656 159.828 64.0469C159.318 64.6771 159.062 65.3177 159.062 65.9688C159.062 66.4271 159.203 66.75 159.484 66.9375C159.745 67.1094 160.141 67.0859 160.672 66.8672C161.208 66.6432 161.685 66.3542 162.102 66V63.2344ZM175.609 70.0234C174.911 70.2109 173.956 70.3047 172.742 70.3047C171.529 70.3047 170.013 70.1615 168.195 69.875V56.8516H172.742V61.4375C173.414 60.8021 174.229 60.3984 175.188 60.2266C175.448 60.1797 175.677 60.1562 175.875 60.1562C177.234 60.1562 178.292 60.612 179.047 61.5234C179.802 62.4349 180.18 63.5495 180.18 64.8672C180.18 65.5703 179.979 66.3021 179.578 67.0625C178.797 68.5417 177.474 69.5286 175.609 70.0234ZM174.992 63.4062C174.31 63.4062 173.552 63.7474 172.719 64.4297V67.375H173.492C174.013 67.375 174.521 67.0599 175.016 66.4297C175.516 65.7943 175.766 65.1432 175.766 64.4766C175.766 64.0026 175.628 63.6771 175.352 63.5C175.253 63.4375 175.133 63.4062 174.992 63.4062ZM184.133 55.7891C184.898 55.7891 185.466 55.9505 185.836 56.2734C186.206 56.5911 186.388 56.9974 186.383 57.4922C186.383 57.987 186.146 58.4427 185.672 58.8594C185.203 59.276 184.576 59.4844 183.789 59.4844C182.685 59.4844 181.997 59.151 181.727 58.4844C181.648 58.2969 181.609 58.0885 181.609 57.8594C181.609 57.6302 181.664 57.3906 181.773 57.1406C181.883 56.8906 182.047 56.6667 182.266 56.4688C182.75 56.0156 183.372 55.7891 184.133 55.7891ZM186.25 70H181.727V60.2891H186.25V70ZM192.594 70H188.164V56.8516H192.594V70ZM196.898 55.7891C197.664 55.7891 198.232 55.9505 198.602 56.2734C198.971 56.5911 199.154 56.9974 199.148 57.4922C199.148 57.987 198.911 58.4427 198.438 58.8594C197.969 59.276 197.341 59.4844 196.555 59.4844C195.451 59.4844 194.763 59.151 194.492 58.4844C194.414 58.2969 194.375 58.0885 194.375 57.8594C194.375 57.6302 194.43 57.3906 194.539 57.1406C194.648 56.8906 194.812 56.6667 195.031 56.4688C195.516 56.0156 196.138 55.7891 196.898 55.7891ZM199.016 70H194.492V60.2891H199.016V70ZM208.258 69.2969C207.268 69.9688 206.219 70.3047 205.109 70.3047C204.005 70.3047 203.107 69.9922 202.414 69.3672C201.721 68.737 201.375 67.8906 201.375 66.8281V62.7656H200.484V60.2891H201.375V57.6641L206.047 57.1875V60.2891H208.258V62.7656H206.047V65.2188C206.047 65.9531 206.211 66.487 206.539 66.8203C206.872 67.1484 207.445 67.3125 208.258 67.3125V69.2969ZM210.32 69.7891C210.872 69.9401 211.565 70.0156 212.398 70.0156C212.924 70.0156 213.276 69.7917 213.453 69.3438C213.505 69.2083 213.531 69.0677 213.531 68.9219C213.531 68.776 213.505 68.6224 213.453 68.4609L209.438 60.2891H214.094L215.773 64.0469L217.344 60.2891H221.438L217.789 69.3594C217.305 70.5417 216.771 71.4141 216.188 71.9766C215.474 72.6641 214.594 73.0078 213.547 73.0078C212.115 73.0078 211.039 72.8594 210.32 72.5625V69.7891Z" fill="white"/>
</svg>
