<svg width="139" height="110" viewBox="0 0 139 110" fill="none" xmlns="http://www.w3.org/2000/svg">
<path d="M79.0001 2.99986C79.0001 22.3298 20.3303 109.999 1.00032 109.999C-5.00004 45.9999 139 94.3293 139 74.9993C139 55.6694 11.67 109.999 31 109.999C50.33 109.999 79.0001 -16.3301 79.0001 2.99986Z" fill="#3CEBA3" fill-opacity="0.8"/>
<path d="M56.9 83.12C56.96 83.32 56.99 83.51 56.99 83.69C56.99 84.01 56.89 84.27 56.69 84.47C56.51 84.65 56.26 84.74 55.94 84.74C55.82 84.74 55.72 84.73 55.64 84.71C54.74 84.51 54.03 84.29 53.51 84.05C53.11 83.87 52.37 83.42 51.29 82.7C50.47 82.16 49.79 81.74 49.25 81.44C48.55 81.06 47.8 80.8 47 80.66C46.64 80.6 45.79 80.5 44.45 80.36C43.85 80.32 43.41 80.28 43.13 80.24L42.59 84.68L42.62 85.16C42.62 85.88 42.53 86.36 42.35 86.6C42.19 86.84 41.85 86.96 41.33 86.96C40.79 86.96 40.32 86.79 39.92 86.45C39.52 86.11 39.32 85.69 39.32 85.19C39.32 83.67 39.4 82.32 39.56 81.14C40.12 77.52 41.41 73.76 43.43 69.86C44.57 67.68 46.32 66 48.68 64.82C49.44 64.44 50.21 64.25 50.99 64.25C51.79 64.25 52.53 64.46 53.21 64.88C53.91 65.28 54.49 65.87 54.95 66.65C55.37 67.35 55.58 68.03 55.58 68.69C55.58 69.61 55.22 70.54 54.5 71.48C53.64 72.6 52.42 74.19 50.84 76.25L48.89 78.77C48.91 78.77 48.93 78.8 48.95 78.86C48.99 78.9 49.03 78.94 49.07 78.98L49.73 79.34C51.39 80.24 52.61 80.95 53.39 81.47C54.15 81.93 54.96 82.16 55.82 82.16C56.08 82.16 56.28 82.15 56.42 82.13C56.48 82.23 56.56 82.38 56.66 82.58C56.76 82.78 56.84 82.96 56.9 83.12ZM45.8 77.18C46.62 76.26 47.44 75.3 48.26 74.3C49.1 73.3 49.84 72.36 50.48 71.48C50.74 71.12 50.96 70.74 51.14 70.34C51.32 69.92 51.48 69.5 51.62 69.08C51.78 68.66 51.89 68.36 51.95 68.18C51.97 68.12 51.98 68.02 51.98 67.88C51.98 67.72 51.96 67.52 51.92 67.28C51.88 67.04 51.85 66.87 51.83 66.77C50.37 67.21 49.04 68.11 47.84 69.47C46.64 70.83 45.69 72.34 44.99 74C44.31 75.66 43.96 77.09 43.94 78.29C44.34 78.33 44.65 78.26 44.87 78.08C45.11 77.9 45.42 77.6 45.8 77.18ZM83.5536 78.65C83.5736 78.45 83.5836 78.14 83.5836 77.72C83.6036 77.58 83.6136 77.35 83.6136 77.03L82.9236 77.69C82.3436 78.23 81.8936 78.63 81.5736 78.89C81.1136 79.23 80.7136 79.39 80.3736 79.37C79.5936 79.31 78.9236 79.15 78.3636 78.89C77.8236 78.61 77.4136 78.14 77.1336 77.48L75.8736 74.42C75.8536 74.44 75.7936 74.51 75.6936 74.63C75.6136 74.73 75.5536 74.84 75.5136 74.96C74.6336 77.06 73.7336 79.3 72.8136 81.68C72.2936 83.02 71.8436 84.35 71.4636 85.67C71.3636 86.01 71.1936 86.25 70.9536 86.39C70.7336 86.53 70.4436 86.6 70.0836 86.6C69.5036 86.6 68.9536 86.39 68.4336 85.97C67.9336 85.55 67.6836 85.04 67.6836 84.44C67.6836 84.22 67.7336 83.98 67.8336 83.72C68.2736 82.56 68.5936 81.69 68.7936 81.11C69.8136 78.37 70.6836 76.17 71.4036 74.51C72.1436 72.83 73.0536 71.21 74.1336 69.65C74.5536 69.03 74.8236 68.66 74.9436 68.54C75.3036 68.1 75.7536 67.88 76.2936 67.88C76.4136 67.88 76.5736 67.9 76.7736 67.94C77.5936 68.1 78.1436 68.25 78.4236 68.39C78.7236 68.51 78.9236 68.72 79.0236 69.02C79.1436 69.3 79.2736 69.85 79.4136 70.67L79.9536 74.48C80.3736 74.24 80.8436 73.85 81.3636 73.31C81.9036 72.75 82.4136 72.13 82.8936 71.45C82.8336 71.53 83.1436 71.13 83.8236 70.25C84.0436 69.99 84.3536 69.6 84.7536 69.08C85.0936 68.6 85.5436 68.36 86.1036 68.36C86.3036 68.36 86.5036 68.39 86.7036 68.45C87.4236 68.61 87.9436 68.85 88.2636 69.17C88.5836 69.49 88.7436 69.95 88.7436 70.55C88.7436 70.91 88.7036 71.28 88.6236 71.66L87.9936 74.78C87.2336 78.66 86.8136 80.84 86.7336 81.32L85.7736 86.9C85.6336 87.86 85.4036 89.28 85.0836 91.16C85.0636 91.38 84.9936 91.69 84.8736 92.09C84.8136 92.27 84.7236 92.58 84.6036 93.02C84.4836 93.46 84.4036 93.85 84.3636 94.19C84.3236 94.53 84.2236 94.78 84.0636 94.94C83.9036 95.12 83.6636 95.22 83.3436 95.24C82.9636 95.26 82.6536 95.17 82.4136 94.97C82.1736 94.79 82.0436 94.52 82.0236 94.16L81.9936 92.18C81.9936 91.52 82.0236 90.86 82.0836 90.2C82.3436 87.88 82.6436 85.53 82.9836 83.15L83.5536 78.65ZM112.916 65.9C114.016 66.04 114.936 66.61 115.676 67.61C115.416 67.99 115.136 68.27 114.836 68.45C114.556 68.61 114.206 68.7 113.786 68.72C112.046 68.74 110.556 68.81 109.316 68.93C108.096 69.05 106.796 69.45 105.416 70.13C104.056 70.81 103.286 71.9 103.106 73.4C102.566 74.5 102.296 75.79 102.296 77.27C102.296 78.03 102.386 79 102.566 80.18C102.806 81.7 103.556 82.46 104.816 82.46C105.136 82.46 105.386 82.44 105.566 82.4C106.626 82.22 107.686 81.82 108.746 81.2C109.346 80.82 109.946 80.39 110.546 79.91C111.146 79.41 111.506 79.12 111.626 79.04L112.406 78.41C112.626 78.21 112.786 78.03 112.886 77.87C113.006 77.69 113.066 77.47 113.066 77.21C113.066 77.11 113.046 76.96 113.006 76.76C112.326 76.82 111.326 76.89 110.006 76.97L109.136 77.03C108.756 77.07 108.186 77.11 107.426 77.15C106.606 77.15 105.956 76.96 105.476 76.58C105.016 76.18 104.656 75.53 104.396 74.63C104.456 74.59 104.526 74.53 104.606 74.45C104.686 74.37 104.756 74.33 104.816 74.33L105.866 74.21C108.166 73.93 109.916 73.76 111.116 73.7C112.096 73.64 113.236 73.72 114.536 73.94C116.336 74.24 117.236 75.07 117.236 76.43C117.236 76.93 117.136 77.45 116.936 77.99C116.836 78.29 116.676 78.64 116.456 79.04C115.996 80.02 115.366 80.87 114.566 81.59C113.766 82.31 112.796 83 111.656 83.66C110.756 84.2 109.966 84.62 109.286 84.92C108.606 85.22 107.886 85.4 107.126 85.46C106.946 85.48 106.666 85.49 106.286 85.49C104.546 85.49 102.966 84.9 101.546 83.72C100.846 83.12 100.306 82.48 99.9263 81.8C99.5663 81.1 99.3563 80.31 99.2963 79.43C99.2563 78.83 99.2363 78.41 99.2363 78.17C99.2363 77.03 99.3763 75.97 99.6563 74.99C99.9363 73.99 100.466 72.44 101.246 70.34C102.026 68.64 103.286 67.45 105.026 66.77C106.766 66.07 108.606 65.72 110.546 65.72C111.366 65.72 112.156 65.78 112.916 65.9Z" fill="#2A2323"/>
</svg>
