<svg width="299" height="387" viewBox="0 0 299 387" fill="none" xmlns="http://www.w3.org/2000/svg">
<path d="M198.849 147.5C198.849 228.962 132.811 295 51.3493 295C-30.1126 295 261.85 443.462 261.85 362C261.85 280.538 -30.1126 0 51.3493 0C132.811 0 198.849 66.038 198.849 147.5Z" fill="#7AEA52" fill-opacity="0.18"/>
<g clip-path="url(#clip0_850_53)">
<path d="M149.45 108.05C125.706 108.05 103.699 117.549 87.504 134.777C72.379 150.716 64.05 171.554 64.05 193.45C64.05 215.344 72.379 236.18 87.484 252.098C103.695 269.349 125.702 278.85 149.45 278.85C173.198 278.85 195.205 269.349 211.387 252.13C226.517 236.254 234.85 215.415 234.85 193.45C234.85 171.561 226.521 150.724 211.416 134.798C195.201 117.549 173.194 108.05 149.45 108.05ZM222.393 199.55C221.196 214.013 215.754 227.674 206.673 238.996L196.463 228.786L187.836 237.413L198.309 247.885C186.432 258.67 171.584 265.097 155.549 266.398V251.398H143.349V266.398C127.322 265.097 112.478 258.674 100.591 247.883L111.062 237.411L102.435 228.784L92.232 238.987C83.156 227.643 77.708 213.979 76.507 199.548H91.5V187.348H76.509C77.71 172.922 83.155 159.262 92.234 147.909L102.436 158.111L111.064 149.485L100.591 139.01C112.47 128.226 127.318 121.799 143.35 120.498V135.498H155.55V120.501C171.576 121.802 186.42 128.226 198.309 139.014L187.836 149.487L196.464 158.113L206.666 147.909C215.742 159.257 221.191 172.921 222.392 187.35H207.4V199.55H222.393Z" fill="#52B9EA"/>
<path d="M143.351 193.973L120.737 216.586L129.364 225.213L153.764 200.813C154.908 199.669 155.551 198.117 155.551 196.5V153.8H143.351V193.973V193.973Z" fill="#52B9EA"/>
<path d="M280.6 166H262.553C260.877 161.912 258.829 157.663 256.254 152.928L268.064 147.063C269.556 146.322 270.681 145.002 271.176 143.41C271.671 141.819 271.493 140.093 270.683 138.637L255.433 111.187C253.847 108.332 250.293 107.233 247.373 108.693L234.046 115.357C228.958 107.864 222.327 99.626 213.501 93.431V44H201.301V86.756C185.911 80.604 168.335 80.599 153.796 80.599H145.107C130.568 80.599 112.992 80.604 97.601 86.757V68.4H183V56.2H97.6V44H85.4V93.432C71.023 103.535 62.0599 119.059 53.3769 134.106C52.8159 135.079 39.951 157.239 36.352 166H18.3C14.932 166 12.2 168.731 12.2 172.1V214.8C12.2 218.169 14.932 220.9 18.3 220.9H36.3489C39.9379 229.639 52.821 251.83 53.386 252.808C62.066 267.848 71.029 283.365 85.4 293.467V342.9H97.6V300.141C112.998 306.297 130.588 306.302 145.139 306.302H153.764C168.314 306.302 185.903 306.297 201.301 300.141V318.5H115.9V330.7H201.3V342.9H213.5V293.463C221.7 287.687 227.955 280.214 232.516 273.828L247.373 281.257C248.248 281.694 249.179 281.902 250.097 281.902C252.245 281.902 254.322 280.763 255.433 278.763L270.683 251.313C271.491 249.859 271.67 248.137 271.179 246.548C270.687 244.959 269.567 243.639 268.079 242.895L254.98 236.345C257.701 231.448 260.326 226.298 262.542 220.9H280.6C283.968 220.9 286.7 218.169 286.7 214.8V172.1C286.7 168.731 283.968 166 280.6 166ZM24.4 208.7V178.2H32.386C31.131 183.437 30.5 188.48 30.5 193.45C30.5 198.416 31.13 203.454 32.387 208.7H24.4ZM247.604 122.218L256.916 138.978L250.245 142.291C249.206 140.471 242.428 128.723 240.62 125.711L247.604 122.218ZM256.924 250.957L247.604 267.732L239.238 263.549C241.615 259.646 248.329 247.948 248.909 246.949L256.924 250.957ZM252.703 212.534C249.774 220.728 245.459 228.57 241.231 235.826C241.22 235.844 241.21 235.863 241.199 235.88C239.664 238.578 229.172 256.851 225.724 262.142C225.629 262.273 225.539 262.408 225.455 262.547C218.294 273.417 211.735 280.347 204.193 285.009C204.044 285.1 202.872 285.854 202.741 285.934C189.669 293.499 173.515 294.101 153.763 294.101H145.138C125.35 294.101 109.174 293.496 96.09 285.894C96.054 285.873 94.936 285.15 94.716 285.014C81.231 276.648 72.4469 261.428 63.952 246.71C63.384 245.725 49.518 221.852 46.208 212.564C43.847 205.731 42.7 199.479 42.7 193.45C42.7 187.424 43.8469 181.171 46.1889 174.392C49.5179 165.048 63.379 141.184 63.945 140.203C72.441 125.479 81.226 110.254 94.715 101.889C94.867 101.794 96.054 101.023 96.09 101.002C109.169 93.402 125.333 92.798 145.106 92.798H153.795C173.532 92.798 189.673 93.399 202.74 100.961C202.86 101.035 204.045 101.802 204.203 101.9C214.333 108.133 221.583 118.323 226.791 126.545C229.763 131.155 240.4 149.637 242.463 153.311C242.478 153.339 242.495 153.367 242.511 153.395C247.329 161.665 250.473 168.134 252.702 174.367C255.057 181.192 256.2 187.433 256.2 193.45C256.2 199.47 255.056 205.713 252.703 212.534ZM274.5 208.7H266.515C267.77 203.465 268.4 198.421 268.4 193.45C268.4 188.48 267.769 183.437 266.514 178.2H274.5V208.7V208.7Z" fill="#52B9EA"/>
<path d="M250.1 187.35H240.95V199.55H250.1V187.35Z" fill="#52B9EA"/>
<path d="M57.9501 187.35H48.8V199.55H57.9501V187.35Z" fill="#52B9EA"/>
</g>
<defs>
<clipPath id="clip0_850_53">
<rect width="298.9" height="298.9" fill="white" transform="translate(0 44)"/>
</clipPath>
</defs>
</svg>
