<svg width="51" height="52" viewBox="0 0 51 52" fill="none" xmlns="http://www.w3.org/2000/svg">
<g clip-path="url(#clip0_869_237)">
<path d="M25.5001 10.9395C21.4488 10.9395 17.6938 12.5619 14.9306 15.5044C12.3499 18.2268 10.9287 21.7859 10.9287 25.5257C10.9287 29.2652 12.3499 32.824 14.9272 35.5427C17.6932 38.4892 21.4481 40.112 25.5001 40.112C29.5522 40.112 33.3071 38.4892 36.0682 35.5482C38.6498 32.8366 40.0716 29.2773 40.0716 25.5257C40.0716 21.7871 38.6504 18.2281 36.0731 15.508C33.3064 12.5619 29.5515 10.9395 25.5001 10.9395ZM37.9461 26.5676C37.7419 29.0378 36.8133 31.3711 35.2639 33.3049L33.5218 31.5611L32.0498 33.0345L33.8367 34.8232C31.8102 36.6652 29.2768 37.763 26.5408 37.9852V35.4232H24.4592V37.9852C21.7245 37.763 19.1918 36.6659 17.1635 34.8228L18.9502 33.0342L17.4782 31.5607L15.7373 33.3034C14.1887 31.3658 13.2591 29.032 13.0542 26.5672H15.6124V24.4835H13.0545C13.2595 22.0195 14.1885 19.6864 15.7376 17.7473L17.4783 19.4898L18.9505 18.0165L17.1635 16.2274C19.1904 14.3855 21.7239 13.2878 24.4593 13.0656V15.6275H26.541V13.0661C29.2754 13.2883 31.8082 14.3855 33.8367 16.2281L32.0498 18.0169L33.5219 19.4902L35.2627 17.7473C36.8113 19.6856 37.741 22.0194 37.9459 24.4838H35.3879V26.5676H37.9461Z" fill="#D9D9D9"/>
<path d="M24.4594 25.6154L20.6008 29.4777L22.0728 30.9512L26.2361 26.7837C26.4313 26.5883 26.541 26.3232 26.541 26.047V18.7539H24.4594V25.6154V25.6154Z" fill="#D9D9D9"/>
<path d="M47.8777 20.8375H44.7984C44.5125 20.1393 44.163 19.4135 43.7237 18.6048L45.7387 17.6031C45.9933 17.4765 46.1853 17.2511 46.2697 16.9791C46.3542 16.7074 46.3238 16.4126 46.1856 16.1639L43.5836 11.4755C43.313 10.9878 42.7066 10.8001 42.2083 11.0495L39.9344 12.1877C39.0663 10.9079 37.9348 9.50087 36.4289 8.44277V0H34.3473V7.30269C31.7213 6.25193 28.7224 6.25108 26.2417 6.25108H24.7591C22.2784 6.25108 19.2795 6.25193 16.6534 7.30286V4.1675H31.2246V2.08375H16.6532V0H14.5716V8.44294C12.1185 10.1685 10.5892 12.82 9.10764 15.39C9.01192 15.5562 6.81682 19.3411 6.20274 20.8375H3.1226C2.54794 20.8375 2.08179 21.3039 2.08179 21.8794V29.1725C2.08179 29.7479 2.54794 30.2144 3.1226 30.2144H6.20223C6.8146 31.707 9.01277 35.4972 9.10917 35.6642C10.5902 38.233 12.1195 40.8833 14.5716 42.6087V51.0519H16.6532V43.7487C19.2805 44.8001 22.2818 44.801 24.7646 44.801H26.2362C28.7188 44.801 31.72 44.8001 34.3473 43.7487V46.8844H19.7757V48.9681H34.3471V51.0519H36.4287V42.6081C37.8279 41.6215 38.8951 40.3451 39.6733 39.2544L42.2083 40.5233C42.3576 40.5979 42.5165 40.6335 42.6731 40.6335C43.0396 40.6335 43.394 40.4389 43.5836 40.0973L46.1856 35.4089C46.3235 35.1605 46.354 34.8664 46.2702 34.595C46.1863 34.3236 45.9952 34.0982 45.7413 33.9711L43.5063 32.8524C43.9705 32.016 44.4184 31.1363 44.7965 30.2144H47.8777C48.4524 30.2144 48.9185 29.7479 48.9185 29.1725V21.8794C48.9185 21.3039 48.4524 20.8375 47.8777 20.8375ZM4.16342 28.1306V22.9212H5.52604C5.3119 23.8157 5.20424 24.6771 5.20424 25.5259C5.20424 26.3741 5.31173 27.2346 5.52621 28.1306H4.16342ZM42.2477 13.3596L43.8366 16.2222L42.6984 16.788C42.5211 16.4772 41.3646 14.4706 41.0561 13.9562L42.2477 13.3596ZM43.838 35.3481L42.2477 38.2132L40.8203 37.4988C41.2259 36.8321 42.3714 34.8341 42.4704 34.6635L43.838 35.3481ZM43.1178 28.7855C42.618 30.185 41.8818 31.5244 41.1603 32.7637C41.1585 32.7668 41.1568 32.77 41.1549 32.7729C40.893 33.2338 39.1028 36.3548 38.5145 37.2585C38.4982 37.2808 38.4829 37.3039 38.4686 37.3276C37.2467 39.1842 36.1276 40.3679 34.8407 41.1641C34.8153 41.1797 34.6153 41.3085 34.593 41.3221C32.3625 42.6142 29.6063 42.717 26.2361 42.717H24.7644C21.3881 42.717 18.628 42.6137 16.3956 41.3153C16.3894 41.3117 16.1987 41.1882 16.1611 41.165C13.8602 39.7361 12.3615 37.1365 10.912 34.6227C10.8151 34.4545 8.44919 30.377 7.88442 28.7906C7.48158 27.6235 7.28587 26.5557 7.28587 25.5259C7.28587 24.4967 7.48158 23.4287 7.88118 22.2708C8.44919 20.6749 10.8142 16.5989 10.9108 16.4314C12.3604 13.9165 13.8594 11.3161 16.161 9.88739C16.1869 9.87116 16.3894 9.73948 16.3956 9.73589C18.6272 8.43782 21.3852 8.33466 24.759 8.33466H26.2415C29.6092 8.33466 32.3632 8.43731 34.5928 9.72889C34.6133 9.74153 34.8155 9.87253 34.8424 9.88927C36.5709 10.9539 37.8079 12.6943 38.6965 14.0986C39.2036 14.886 41.0186 18.0427 41.3706 18.6702C41.3731 18.675 41.376 18.6798 41.3787 18.6846C42.2008 20.0971 42.7373 21.202 43.1176 22.2666C43.5194 23.4323 43.7144 24.4982 43.7144 25.5259C43.7144 26.5541 43.5192 27.6204 43.1178 28.7855ZM46.8369 28.1306H45.4744C45.6886 27.2365 45.7961 26.375 45.7961 25.5259C45.7961 24.6771 45.6884 23.8157 45.4743 22.9212H46.8369V28.1306V28.1306Z" fill="#D9D9D9"/>
<path d="M42.6735 24.4839H41.1123V26.5676H42.6735V24.4839Z" fill="#D9D9D9"/>
<path d="M9.88789 24.4839H8.32666V26.5676H9.88789V24.4839Z" fill="#D9D9D9"/>
</g>
<defs>
<clipPath id="clip0_869_237">
<rect width="51" height="51.0519" fill="white"/>
</clipPath>
</defs>
</svg>
