<svg width="94" height="94" viewBox="0 0 94 94" fill="none" xmlns="http://www.w3.org/2000/svg">
<path d="M66.2267 31.4006L71.0173 29.6542C71.0173 29.6542 67.5783 34.9366 66.833 35.3544C66.9106 36.3528 67.0626 37.344 67.2877 38.3197C64.0439 80.4988 26.2942 67.8752 26.2942 67.8752C39.0906 66.2163 39.3745 60.8108 39.3745 60.8108C31.7944 60.8604 29.569 56.2444 29.569 56.2444C30.2879 56.4932 31.0734 56.4681 31.775 56.1739C32.4765 55.8796 33.0449 55.3369 33.3712 54.6496C25.0464 53.8017 24.9362 45.8262 24.9362 45.8262C26.5213 46.6377 28.2881 47.0286 30.0676 46.9615C29.0113 46.0106 20.1197 38.1678 23.9541 32.8249C23.9541 32.8249 31.0052 41.8604 45.6717 40.5218L46.6299 40.1725C46.3526 39.4863 46.1738 38.7644 46.0987 38.0282C45.6766 35.2756 46.3652 32.4681 48.0131 30.2232C49.6609 27.9783 52.1331 26.4801 54.8857 26.0579C61.8048 24.9968 63.8938 28.7232 63.8938 28.7232L68.3813 25C68.2825 25.0152 68.5462 30.0332 66.2267 31.4006Z" fill="#52B9EA"/>
<circle cx="47" cy="47" r="45" stroke="#52B9EA" stroke-width="3" stroke-dasharray="40 10 100 60"/>
</svg>
