<svg width="250" height="298" viewBox="0 0 250 298" fill="none" xmlns="http://www.w3.org/2000/svg">
<path d="M247.76 72.3447C245.949 71.1614 243.558 71.2213 241.816 72.4988C240.052 73.7882 237.19 74.8969 233.936 75.8063C242.845 65.7646 243.029 59.0516 242.924 57.4714C242.805 55.6795 241.683 54.0923 240.002 53.3272C238.313 52.5672 236.335 52.7473 234.832 53.8009C224.142 61.3003 213.5 62.9337 207.102 63.1162C197.172 53.998 184.298 49 170.608 49C141.179 49 117.236 72.422 117.236 101.21C117.236 103.541 117.396 105.867 117.709 108.173C67.4688 107.348 26.692 60.9179 26.2711 60.4296C25.2047 59.1959 23.5855 58.5245 21.9112 58.6787C20.2521 58.8182 18.7648 59.7323 17.9327 61.1249C3.77014 84.8476 12.422 105.78 21.109 118.321C20.212 117.806 19.4772 117.332 18.9742 116.974C17.4396 115.872 15.3917 115.689 13.6754 116.505C11.9562 117.323 10.8575 118.997 10.8253 120.846C10.4415 143.594 21.4522 156.905 32.1505 164.448C30.9923 164.602 29.9059 165.136 29.0909 165.992C27.8653 167.276 27.4342 169.092 27.9625 170.764C35.3814 194.21 53.3731 202.515 65.254 205.454C41.2208 222.962 6.3883 217.247 6.00207 217.177C3.6925 216.785 1.38098 217.961 0.431761 220.044C-0.515015 222.124 0.132933 224.564 2.00647 225.941C27.6236 244.818 58.2613 249 80.3902 249C97.1245 249 108.99 246.607 110.131 246.369C221.761 220.828 225.299 122.356 225.07 105.575C246.011 86.7512 249.305 79.5263 249.818 77.7292C250.396 75.6955 249.569 73.5308 247.76 72.3447ZM216.447 99.8557C215.309 100.866 214.708 102.324 214.813 103.815C214.83 104.079 216.539 130.77 204.22 160.51C187.761 200.247 155.312 225.908 107.879 236.761C107.371 236.864 63.4918 245.638 24.9728 227.95C41.44 227.284 64.2447 222.806 80.2911 205.414C81.6314 203.963 81.9502 201.721 81.1255 199.948C80.3008 198.181 78.4698 196.879 76.462 196.879C76.4522 196.879 76.4419 196.879 76.4273 196.879C75.0796 196.879 51.8487 196.711 40.7179 175.05C45.2193 175.238 50.6007 174.982 54.9376 173.053C56.9356 172.162 58.1163 170.177 57.8697 168.068C57.6231 165.958 56.004 164.259 53.8511 163.821C52.6031 163.566 25.7022 157.77 21.5548 129.552C25.6876 131.215 30.8394 132.502 35.964 131.761C37.9322 131.477 39.544 130.111 40.1016 128.266C40.6573 126.424 40.0494 124.434 38.547 123.171C37.3834 122.195 12.0201 100.414 23.6344 72.2702C37.3834 86.0978 76.5933 120.528 124.139 117.897C125.656 117.813 127.056 117.077 127.957 115.893C128.857 114.71 129.164 113.202 128.792 111.779C127.895 108.33 127.439 104.775 127.439 101.211C127.439 77.8537 146.804 58.8522 170.608 58.8522C182.249 58.8522 193.168 63.3377 201.355 71.4843C202.294 72.4201 203.58 72.9561 204.93 72.9806C209.646 73.024 217.411 72.5332 226.185 69.3823C223.569 72.3404 219.91 75.8039 214.793 79.6837C213.024 81.0259 212.374 83.3301 213.193 85.353C214.016 87.3806 216.15 88.6624 218.352 88.4677C219.384 88.3885 224.384 87.9628 230.243 86.8153C226.886 90.2614 222.409 94.5622 216.447 99.8557Z" fill="#52B9EA"/>
<path d="M157.324 113.75C157.324 176.572 102.109 227.499 33.9977 227.499C-34.1138 227.499 210 341.991 210 279.169C210 216.346 -34.1138 0 33.9977 0C102.109 0 157.324 50.9274 157.324 113.75Z" fill="#7AEA52" fill-opacity="0.18"/>
</svg>
