<svg width="111" height="130" viewBox="0 0 111 130" fill="none" xmlns="http://www.w3.org/2000/svg">
<path d="M86 115C86 148.098 35.6661 115 4.87096 115C-25.9241 115 99.3706 110.176 99.3706 77.0788C99.3706 43.9812 19.2049 0 50 0C80.7951 0 86 81.9024 86 115Z" fill="#42E87A" fill-opacity="0.29"/>
<path d="M83.2267 63.4006L88.0173 61.6542C88.0173 61.6542 84.5783 66.9366 83.833 67.3544C83.9106 68.3528 84.0626 69.344 84.2877 70.3197C81.0439 112.499 43.2942 99.8752 43.2942 99.8752C56.0906 98.2163 56.3745 92.8108 56.3745 92.8108C48.7944 92.8604 46.569 88.2444 46.569 88.2444C47.2879 88.4932 48.0734 88.4681 48.775 88.1739C49.4765 87.8796 50.0449 87.3369 50.3712 86.6496C42.0464 85.8017 41.9362 77.8262 41.9362 77.8262C43.5213 78.6377 45.2881 79.0286 47.0676 78.9615C46.0113 78.0106 37.1197 70.1678 40.9541 64.8249C40.9541 64.8249 48.0052 73.8604 62.6717 72.5218L63.6299 72.1725C63.3526 71.4863 63.1738 70.7644 63.0987 70.0282C62.6766 67.2756 63.3652 64.4681 65.0131 62.2232C66.6609 59.9783 69.1331 58.4801 71.8857 58.0579C78.8048 56.9968 80.8938 60.7232 80.8938 60.7232L85.3813 57C85.2825 57.0152 85.5462 62.0332 83.2267 63.4006Z" fill="#52B9EA"/>
<circle cx="64" cy="79" r="45" stroke="#52B9EA" stroke-width="3" stroke-dasharray="40 10 100 60"/>
</svg>
