<svg width="94" height="94" viewBox="0 0 94 94" fill="none" xmlns="http://www.w3.org/2000/svg">
<path d="M66.363 33.0045C64.8469 30.8704 62.0478 30 56.7022 30H37.2974C31.8295 30 28.9829 30.9267 27.4725 33.1986C26 35.4137 26 38.6776 26 43.195V51.8051C26 60.5566 27.7472 65 37.2974 65H56.7022C61.338 65 63.9067 64.2319 65.5686 62.3486C67.2729 60.4174 68 57.2641 68 51.8051V43.195C68 38.4311 67.8861 35.1479 66.363 33.0045ZM52.9642 48.6887L44.1525 54.1418C43.9556 54.2637 43.7401 54.3242 43.525 54.3242C43.2814 54.3242 43.0383 54.2466 42.8231 54.0923C42.4177 53.8015 42.1702 53.2811 42.1702 52.72V41.8487C42.1702 41.2885 42.417 40.7686 42.8216 40.4776C43.2262 40.1866 43.7296 40.1667 44.1494 40.425L52.961 45.8429C53.4093 46.1185 53.6909 46.6665 53.6915 47.2645C53.6921 47.863 53.4118 48.4119 52.9642 48.6887Z" fill="#52B9EA"/>
<circle cx="47" cy="47" r="45" stroke="#52B9EA" stroke-width="3" stroke-dasharray="40 100 0 90"/>
</svg>
