<svg width="112" height="130" viewBox="0 0 112 130" fill="none" xmlns="http://www.w3.org/2000/svg">
<path d="M86 115C86 148.098 35.6661 115 4.87096 115C-25.9241 115 99.3706 110.176 99.3706 77.0788C99.3706 43.9812 19.2049 0 50 0C80.7951 0 86 81.9024 86 115Z" fill="#42E87A" fill-opacity="0.29"/>
<circle cx="65" cy="74" r="45" stroke="#52B9EA" stroke-width="3" stroke-dasharray="40 10 100 60"/>
<path d="M88.0512 57.4337C86.2463 54.9948 82.9141 54 76.5502 54H53.4493C46.9398 54 43.5511 55.059 41.753 57.6556C40 60.1871 40 63.9173 40 69.0801V78.9201C40 88.9218 42.08 94 53.4493 94H76.5503C82.069 94 85.127 93.1221 87.1055 90.9698C89.1344 88.7627 90 85.159 90 78.9201V69.0801C90 63.6355 89.8644 59.8834 88.0512 57.4337ZM72.1002 75.3585L61.6102 81.5906C61.3757 81.73 61.1191 81.7991 60.8631 81.7991C60.573 81.7991 60.2837 81.7104 60.0274 81.534C59.5448 81.2017 59.2502 80.607 59.2502 79.9657V67.5413C59.2502 66.9011 59.544 66.307 60.0257 65.9744C60.5074 65.6418 61.1066 65.6191 61.6064 65.9142L72.0965 72.1062C72.6302 72.4211 72.9653 73.0475 72.9661 73.7309C72.9668 74.4149 72.6331 75.0421 72.1002 75.3585Z" fill="#52B9EA"/>
</svg>
