<svg width="94" height="94" viewBox="0 0 94 94" fill="none" xmlns="http://www.w3.org/2000/svg">
<circle cx="47" cy="47" r="45" stroke="#C9CBCC" stroke-width="3" stroke-dasharray="40 10 100 60"/>
<path d="M70.0512 30.4337C68.2463 27.9948 64.9141 27 58.5502 27H35.4493C28.9398 27 25.5511 28.059 23.753 30.6556C22 33.1871 22 36.9173 22 42.0801V51.9201C22 61.9218 24.08 67 35.4493 67H58.5503C64.069 67 67.127 66.1221 69.1055 63.9698C71.1344 61.7627 72 58.159 72 51.9201V42.0801C72 36.6355 71.8644 32.8834 70.0512 30.4337ZM54.1002 48.3585L43.6102 54.5906C43.3757 54.73 43.1191 54.7991 42.8631 54.7991C42.573 54.7991 42.2837 54.7104 42.0274 54.534C41.5448 54.2017 41.2502 53.607 41.2502 52.9657V40.5413C41.2502 39.9011 41.544 39.307 42.0257 38.9744C42.5074 38.6418 43.1066 38.6191 43.6064 38.9142L54.0965 45.1062C54.6302 45.4211 54.9653 46.0475 54.9661 46.7309C54.9668 47.4149 54.6331 48.0421 54.1002 48.3585Z" fill="white"/>
</svg>
